<svg id="Layer_1" data-name="Layer 1" xmlns="http://www.w3.org/2000/svg" xmlns:xlink="http://www.w3.org/1999/xlink" viewBox="0 0 612 792"><defs><style>.cls-1,.cls-14,.cls-24,.cls-33,.cls-5,.cls-6{fill:none;}.cls-2{clip-path:url(#clip-path);}.cls-3{fill:url(#linear-gradient);}.cls-4{clip-path:url(#clip-path-2);}.cls-5,.cls-6{stroke:#000;}.cls-14,.cls-24,.cls-5{stroke-width:0.5px;}.cls-6{stroke-width:0.25px;}.cls-7{fill:#60a89e;}.cls-8{clip-path:url(#clip-path-3);}.cls-9{fill:url(#linear-gradient-2);}.cls-10{clip-path:url(#clip-path-4);}.cls-11{clip-path:url(#clip-path-5);}.cls-12{fill:url(#linear-gradient-3);}.cls-13{clip-path:url(#clip-path-6);}.cls-14{stroke:#fff;}.cls-15{clip-path:url(#clip-path-7);}.cls-16{fill:url(#linear-gradient-4);}.cls-17{clip-path:url(#clip-path-8);}.cls-18{clip-path:url(#clip-path-9);}.cls-19{fill:url(#linear-gradient-5);}.cls-20{clip-path:url(#clip-path-10);}.cls-21{clip-path:url(#clip-path-11);}.cls-22{fill:url(#linear-gradient-6);}.cls-23{clip-path:url(#clip-path-12);}.cls-24,.cls-33{stroke:#231f20;}.cls-25{clip-path:url(#clip-path-13);}.cls-26{fill:url(#linear-gradient-7);}.cls-27{clip-path:url(#clip-path-14);}.cls-28{clip-path:url(#clip-path-15);}.cls-29{fill:url(#linear-gradient-8);}.cls-30{clip-path:url(#clip-path-16);}.cls-31{clip-path:url(#clip-path-17);}.cls-32{fill:#ffe8d3;}.cls-33{stroke-width:0.75px;}.cls-34{fill:#fff;}.cls-35{fill:#fff5e4;}.cls-36{fill:#dd9828;}</style><clipPath id="clip-path"><path class="cls-1" d="M27.37,745.44c0-3.2,2-7.21,2-7.21,1.08-4.63,3.6,2,3.6,5.21s0,11.23-2.85,14a1.22,1.22,0,0,1-.81.44c-2,0-2-9.6-2-12.47M13.25,686.5a34.92,34.92,0,0,1,9.68-1.6c3.63.8-7.61,7.22-12.93,8.61a4.93,4.93,0,0,1-1.25.19c-3.38,0,.08-5.74,4.5-7.2M62.31,715c-4.44-5-7-12.83-8.48-14.43s-12.52-15-9.06-17.85c0,0,3.61-2.8,6.63,0s7.14,10.43,9.1,11.63,6.66,7.62,5.85,12c-.64,3.51,0,10.07-2,10.07-.5,0-1.17-.43-2.08-1.45m-3.43-67.22c2-1.48,6.06,0,6.06,0s.29.26.29,2.07-6.84,2.73-10,2.73,1.56-3.34,3.61-4.8m21.5,15c-4.79-5-7.84-10.23-4.13-14.77a6.51,6.51,0,0,1,8.48-1.6c7.27,2.8,8.08,17,8.08,23.25,0,1.63-.51,2.3-1.35,2.3-2.41,0-7.52-5.46-11.08-9.18M3,639.32c-9.09,8.56-16.32,20.62-18.18,29.14s5.05,2.67,8.59-2,14.64-11,23.73-12,1,5-4.54,6.68S-10.6,672.47-13.29,677s-4.16,20-4.16,27.07,4.16,4.11,7.65,1.5S-2.52,698-.5,697,4,698,2,700a51.41,51.41,0,0,0-8.58,10c-4,6-2.23,12.53,0,10A152.4,152.4,0,0,1,5.56,708.16c3-2.4,6.56,3.07,7.07,4.91s-.51,6-1,10S2.53,726.6-3.53,728.6s-4.13,9-4.13,13.54,1.1,1,3.12-.5,6.56-1,6.56,2-6.56,8.52-8.58,15.54S2,784.74,5.05,784.74s7.07-4,7.07-4c0,2.5,4-1,10.1-3.28s4-9.42,6.77-10.76-.21,5.34.8,8.53,6.57.5,12.12-3.85,15.91-16.7,19.19-22.22,2-17,2-20.55,5.05-2,4.54,1a9.23,9.23,0,0,0,3,9c3,2.5,7.56-5.52,17.66-10s6.1-9,8.58-15S94.47,691.18,94.47,686s0-9,3.49-7,4.55,15.53,5.05,17.54,6.06,2.5,10.1-11-5-25.06-14.14-40.09-16.15-15.54-23.73-12-27.77,16-27.77,16c.86-16.54-6.57-29.07-14.65-30.57a6.91,6.91,0,0,0-1.3-.11c-8.08,0-19.87,12.47-28.49,20.59"/></clipPath><linearGradient id="linear-gradient" x1="1.11" y1="792.33" x2="3.39" y2="792.33" gradientTransform="matrix(0, -73.23, -73.23, 0, 58075, 866.23)" gradientUnits="userSpaceOnUse"><stop offset="0" stop-color="#61a89e"/><stop offset="0.19" stop-color="#61a89e"/><stop offset="1" stop-color="#427d72"/></linearGradient><clipPath id="clip-path-2"><rect class="cls-1" x="-18.02" y="618.16" width="132.68" height="167.15"/></clipPath><clipPath id="clip-path-3"><path class="cls-1" d="M231.72,683.79c1.92-3.94,11.05-3,12.66-.16,7.08,3.45-15.8,6-12.66.16m36.79-2.9c1.33-3,8-5.79,9.69-2.46,2.13,2.22-10.21,7.93-9.69,2.46m-43.36-8.18c-4.38-1.84-9.3-3.13-10.41-4.38s-2-3.92.31-3.26c0,0,8.67,2,10.49,4.45,2.5,3,3.21,4.8-.39,3.19m-58.77-49.42c-4.75,1.15-12.45,5.22-12.42,7.31s-1.26,16-.84,18.16c-7.43-10.19-1.74,7.19-.35,11.37,1.35,5,8.19,10.19,18.84,12.31,0,0-18.73,7.08-17.33,12.28s2,9.75,10.71,12.43c0,0,4-2.83,6.47-2.75s-.12,4-.3,4.67,11.51,2.62,11.89,1.75c1.91-9.89,12.5-15.86,22.32-18.26,3.57-1.43,9.92-3,7-.11-6,5.14-20.5,6-16.4,16.72,3.08,6.09-.27,7.11,8.07,7,7.2-1.43,25.27,9.5,24.61-2.18-1.37-1.85-5.18-6.58-2.94-9s6.88,1.88,6.83,4.24c3.57,8.36,29.66,21.28,37.84,23.27,19.75,0-9.71-12.34,4.44-17.3,5.91-1,11.79-1,10.43,3-.94,4.21-4.65,9.62-.69,16.93,2.86,3.1,26,16.83,28.79,11.08,2.08-10.23,8.85,22.49,16.66,23.68,13.62,6.5,16.13,5.83,12.52-6.21,12,3.48.8-17.2-2.64-21.4-3.24-2.59-18.05-14-19.4-15.07s-14-13.21-15-15.14-4.44-7.93-8.49-8.45c-7.88-1.81-4.67-3.86-1.16-3.25,6.06,1.64,2.07-10.38-1.41-11.84-3.41-2-6.09-5.15-10-3.68s-7.37,1.84-4.95,0c2.75-3,16.94-1,11.2-7.45-6-3.83-20.6-10.51-28.83-8.4-4.84,2-19.65,7.34-22.15,8.72s-5,2-3.25-1.13,9-5.78,11.4-5.94c4.67-1,26.58-6.34,13.76-13.4-6.07-2.77-15.89-8.48-18.15-7.25s-16,12.18-18.29,16.91-4,5.06-7.86,3.19c-11.85-4.85-5.24-12.89,4.14-18,8.33-4.06,15.5-4.21,7.05-9.08-1.39-1-11.61-4.11-12.8-4.45s-3.22-2.92-8.6,1.63-11.3,9.17-12,11.67a24.25,24.25,0,0,0,.7,12.72c3.27,10.25-2.86,11.69-5.14,2.63-3.61-9.58-9.51-25.48,2.57-30.48-2.82-6.52-20.56-4-26.85-3.46"/></clipPath><linearGradient id="linear-gradient-2" x1="2.2" y1="794.45" x2="4.48" y2="794.45" gradientTransform="matrix(0, 96.97, 96.97, 0, -76789.44, 371.54)" xlink:href="#linear-gradient"/><clipPath id="clip-path-4"><rect class="cls-1" x="149" y="621.94" width="199.7" height="142.51"/></clipPath><clipPath id="clip-path-5"><path class="cls-1" d="M374.15,765.53c.76-2.83,10.23-9.95,13.33-11.33L392,753s5.95.25,6.67,1.66.19,3.14-2.62,4.48-7.38,3.19-11.43,4.72c-2.83,1.07-7.18,2.84-9.3,2.84-.91,0-1.4-.33-1.17-1.19m35.23-21.75c-1.47-.2-3-2.57-3.88-2.57s-1.12-1.88,3.88.24c0,0,1.35,2.34.15,2.34h-.15M377.72,740a9.26,9.26,0,0,0,4-1.33s1.91,0,1.19,1.33-3.8,2.17-6.29,2.17-.85-2.17,1.06-2.17M327,688.81c2.85-1.85,11.46-3.07,11.46-3.07,8-2.6-5.83,6.85-12.89,7.32-.53,0-1,.05-1.37.05-4.87,0,.15-2.59,2.8-4.3m21.66-6c0-1.3,3.8-1.77,3.8-1.77,2.35-.49,2.15,1.77,1.87,2.83-.09.34-.7.49-1.49.49-1.69,0-4.18-.67-4.18-1.55m28.48-9.59c-.08-1,2-2.22,2-2.22,2.38-2.24,5.71-2.53,8.62-2.53s7.25-3,9.7.29-.71,3.6-2.45,3.6-8.65.86-13.26.86a19.25,19.25,0,0,0-4.39.43c-.17,0-.18-.11-.21-.43m-7.24-9.59c-8.92.88-11,9.15-11,9.15a40.42,40.42,0,0,0-19.28-9.45c-6.78-1.18-21.42,2.13-24,3.54s-3.34,5.67-2.38,6.1,7.14-3.26,9.52-3.74.24,1.19-1.43,2.13A156.86,156.86,0,0,0,308,680.55c-3.09,2.59-8.33,10.15-9.76,12.27s-1.9,5-2.14,8.66.71,8.1,2.14,8.34,3.81-3.3,6.55-6.37,5.59-6.14,9.92-6.89,2.1,1.93,1.15,3.34-8.57,8.5-12.38,11.57-4.05,5.67-3.65,6.85,1.27,5,3.41,7.55,4.76,1.66,8.33-1.89,19-9.91,24.52-10.85,8.81,3.06,5.39,4.09-5.95,2-12.89,5.58-15.35,9.92-17.25,14.64,4.36,11.1,5.47,12.24,7.38,5.7,8.81,3.81,8.09-9.67,11.66-11.56,2.86.47,1.67,1.18-5,8-7.15,13.22,5.48,7.79,8.81,10.62,6.19-2.36,7.23-4,1.58-4.25,4.2-8.5,11.19-9,14.24-9.92,1.23,1.89,0,3.78S353,760.58,349.63,768.13s.48,12,2.14,13.22,9.76,5.9,11.51,7.08,1.82-2.83,2.3-6.29,5.47-9,6.42-9-.47,5.43-3.09,10.39-1.43,6.13.24,6.37a74.4,74.4,0,0,1,10.24,2.36c3.8,1.22,14.75,6.61,22.13,9.91s13.09-5.19,18.33-8,12.36-5.57,13.92-7,1-2.72-.57-3.52-3.35-1-9.07-3.09-5.47-3.31-5.23-4.78a7.64,7.64,0,0,1,2.4-4.19c1.33-1.3,6.94,1.29,8.19,1.76s6.69,4.88,8.93,5.38,3.81-7.14,3.81-11.81-1.59-6.08-3-7-10.23-6.75-13.93-9.45-8.56-3.38-9.76-3.69-.95-1.5-.11-2.09,1.19-.18,4.16-.77,9.52,2.07,12.8,3.55a34.68,34.68,0,0,0,8.31,2.06,41.45,41.45,0,0,1-.58-11.51c.6-6.19-2.48-16.23-2.32-19.41s-3.69-5-3.69-5L432,711.94c-2.14-1.65-4.64-7.31-6.43-10.85s-8.09-6.26-8.09-6.26,5.36-.35,7.85-.47,3.58,5.54,4.64,9.44S435.2,707,435.2,707c2.86-11.45-2.06-24-2.73-27.51a4.37,4.37,0,0,0-1.91-3.18l.06-1.18c-3.57-9.74-13.39-10.92-19.74-12a98,98,0,0,0-12.92-.56c-9.94,0-22.37.49-28,1.05"/></clipPath><linearGradient id="linear-gradient-3" x1="0.83" y1="787.06" x2="3.11" y2="787.06" gradientTransform="matrix(0, -61.97, -61.97, 0, 49146.14, 854.97)" xlink:href="#linear-gradient"/><clipPath id="clip-path-6"><rect class="cls-1" x="295.46" y="660" width="147.33" height="143.45"/></clipPath><clipPath id="clip-path-7"><path class="cls-1" d="M29.65,745.44c0-3.2,2-7.21,2-7.21,1.08-4.63,3.6,2,3.6,5.21s0,11.23-2.84,14a1.26,1.26,0,0,1-.82.44c-2,0-2-9.6-2-12.47M15.53,686.5a34.92,34.92,0,0,1,9.68-1.6c3.64.8-7.61,7.22-12.93,8.61a4.93,4.93,0,0,1-1.24.19c-3.38,0,.08-5.74,4.49-7.2M64.6,715c-4.45-5-7-12.83-8.49-14.43s-12.52-15-9-17.85c0,0,3.6-2.8,6.63,0s7.13,10.43,9.09,11.63,6.66,7.62,5.85,12c-.64,3.51,0,10.07-2,10.07-.5,0-1.17-.43-2.07-1.45m-3.44-67.22c2.05-1.48,6.06,0,6.06,0s.29.26.29,2.07-6.84,2.73-10,2.73,1.55-3.34,3.6-4.8m21.51,15c-4.79-5-7.84-10.23-4.14-14.77a6.51,6.51,0,0,1,8.48-1.6c7.28,2.8,8.08,17,8.08,23.25,0,1.63-.51,2.3-1.35,2.3-2.4,0-7.52-5.46-11.07-9.18M5.31,639.32c-9.08,8.56-16.32,20.62-18.17,29.14s5.05,2.67,8.58-2,14.64-11,23.73-12,1,5-4.54,6.68S-8.32,672.47-11,677s-4.15,20-4.15,27.07,4.15,4.11,7.64,1.5S-.24,698,1.78,697s4.55,1,2.53,3a51.34,51.34,0,0,0-8.59,10c-4,6-2.23,12.53,0,10A152.4,152.4,0,0,1,7.84,708.16c3-2.4,6.57,3.07,7.07,4.91s-.5,6-1,10S4.81,726.6-1.25,728.6s-4.12,9-4.12,13.54,1.09,1,3.11-.5,6.57-1,6.57,2-6.57,8.52-8.59,15.54,8.59,25.56,11.62,25.56,7.07-4,7.07-4c0,2.5,4-1,10.09-3.28s4-9.42,6.77-10.76-.2,5.34.81,8.53,6.56.5,12.12-3.85,15.9-16.7,19.18-22.22,2-17,2-20.55,5-2,4.55,1a9.22,9.22,0,0,0,3,9c3,2.5,7.56-5.52,17.66-10s6.1-9,8.58-15S96.75,691.18,96.75,686s0-9,3.49-7,4.55,15.53,5.05,17.54,6.06,2.5,10.1-11-5-25.06-14.14-40.09-16.14-15.54-23.73-12-27.77,16-27.77,16c.86-16.54-6.56-29.07-14.64-30.57a7.06,7.06,0,0,0-1.3-.11c-8.09,0-19.88,12.47-28.5,20.59"/></clipPath><linearGradient id="linear-gradient-4" x1="1.11" y1="792.3" x2="3.39" y2="792.3" xlink:href="#linear-gradient"/><clipPath id="clip-path-8"><rect class="cls-1" x="-15.74" y="618.16" width="132.68" height="167.15"/></clipPath><clipPath id="clip-path-9"><path class="cls-1" d="M234,683.79c1.93-3.94,11.05-3,12.66-.16,7.08,3.45-15.8,6-12.66.16m36.79-2.9c1.33-3,8-5.79,9.69-2.46,2.13,2.22-10.21,7.93-9.69,2.46m-43.36-8.18c-4.38-1.84-9.29-3.13-10.4-4.38s-2-3.92.31-3.26c0,0,8.66,2,10.49,4.45,2.5,3,3.2,4.8-.4,3.19m-58.77-49.42c-4.75,1.15-12.45,5.22-12.42,7.31s-1.26,16-.84,18.16c-7.42-10.19-1.74,7.19-.34,11.37,1.34,5,8.18,10.19,18.83,12.31,0,0-18.73,7.08-17.32,12.28s2,9.75,10.7,12.43c0,0,4-2.83,6.47-2.75s-.11,4-.3,4.67,11.51,2.62,11.9,1.75c1.91-9.89,12.49-15.86,22.32-18.26,3.56-1.43,9.91-3,7-.11-6,5.14-20.49,6-16.4,16.72,3.08,6.09-.27,7.11,8.07,7,7.21-1.43,25.27,9.5,24.61-2.18-1.37-1.85-5.17-6.58-2.94-9s6.88,1.88,6.83,4.24c3.57,8.36,29.66,21.28,37.84,23.27,19.75,0-9.7-12.34,4.44-17.3,5.91-1,11.8-1,10.43,3-.94,4.21-4.65,9.62-.69,16.93,2.86,3.1,26,16.83,28.79,11.08,2.08-10.23,8.85,22.49,16.67,23.68,13.61,6.5,16.12,5.83,12.51-6.21,12,3.48.8-17.2-2.64-21.4-3.24-2.59-18.05-14-19.4-15.07S308.69,704,307.78,702s-4.43-7.93-8.49-8.45c-7.88-1.81-4.67-3.86-1.16-3.25,6.06,1.64,2.07-10.38-1.41-11.84-3.41-2-6.09-5.15-10-3.68s-7.36,1.84-4.95,0c2.75-3,16.94-1,11.2-7.45-6-3.83-20.6-10.51-28.83-8.4-4.84,2-19.65,7.34-22.14,8.72s-5,2-3.25-1.13,9-5.78,11.39-5.94c4.67-1,26.58-6.34,13.76-13.4-6.07-2.77-15.89-8.48-18.15-7.25s-16,12.18-18.29,16.91-4,5.06-7.86,3.19c-11.85-4.85-5.24-12.89,4.15-18,8.32-4.06,15.5-4.21,7-9.08-1.39-1-11.6-4.11-12.8-4.45s-3.22-2.92-8.6,1.63-11.3,9.17-12,11.67a24.13,24.13,0,0,0,.69,12.72c3.27,10.25-2.85,11.69-5.14,2.63-3.6-9.58-9.51-25.48,2.58-30.48-2.83-6.52-20.57-4-26.86-3.46"/></clipPath><linearGradient id="linear-gradient-5" x1="2.22" y1="794.46" x2="4.5" y2="794.46" gradientTransform="matrix(0, 96.97, 96.97, 0, -76787.78, 369.35)" xlink:href="#linear-gradient"/><clipPath id="clip-path-10"><rect class="cls-1" x="151.28" y="621.94" width="199.7" height="142.51"/></clipPath><clipPath id="clip-path-11"><path class="cls-1" d="M376.43,765.53c.76-2.83,10.23-9.95,13.33-11.33l4.52-1.18s6,.25,6.67,1.66.19,3.14-2.62,4.48-7.38,3.19-11.43,4.72c-2.82,1.07-7.18,2.84-9.3,2.84-.91,0-1.4-.33-1.17-1.19m35.23-21.75c-1.47-.2-3-2.57-3.87-2.57s-1.13-1.88,3.87.24c0,0,1.36,2.34.15,2.34h-.15M380,740a9.32,9.32,0,0,0,4.05-1.33s1.9,0,1.19,1.33-3.81,2.17-6.29,2.17S378.1,740,380,740m-50.7-51.14c2.85-1.85,11.46-3.07,11.46-3.07,8.06-2.6-5.83,6.85-12.89,7.32-.53,0-1,.05-1.37.05-4.87,0,.15-2.59,2.8-4.3m21.66-6c0-1.3,3.81-1.77,3.81-1.77,2.34-.49,2.14,1.77,1.86,2.83-.09.34-.7.49-1.49.49-1.68,0-4.18-.67-4.18-1.55m28.48-9.59c-.08-1,2-2.22,2-2.22,2.38-2.24,5.71-2.53,8.62-2.53s7.25-3,9.71.29-.72,3.6-2.46,3.6-8.65.86-13.25.86a19.4,19.4,0,0,0-4.4.43c-.17,0-.18-.11-.21-.43m-7.24-9.59c-8.92.88-11,9.15-11,9.15a40.42,40.42,0,0,0-19.28-9.45c-6.78-1.18-21.42,2.13-24,3.54s-3.33,5.67-2.38,6.1,7.14-3.26,9.52-3.74.24,1.19-1.43,2.13a158.47,158.47,0,0,0-13.33,9.21c-3.09,2.59-8.33,10.15-9.76,12.27s-1.9,5-2.14,8.66.72,8.1,2.14,8.34,3.81-3.3,6.55-6.37,5.59-6.14,9.92-6.89,2.1,1.93,1.15,3.34-8.57,8.5-12.38,11.57-4.05,5.67-3.65,6.85,1.27,5,3.41,7.55,4.76,1.66,8.34-1.89,19-9.91,24.51-10.85,8.81,3.06,5.4,4.09-5.95,2-12.89,5.58-15.36,9.92-17.26,14.64,4.36,11.1,5.47,12.24,7.38,5.7,8.81,3.81,8.09-9.67,11.66-11.56,2.86.47,1.67,1.18-5,8-7.14,13.22,5.47,7.79,8.81,10.62,6.18-2.36,7.22-4,1.58-4.25,4.2-8.5,11.19-9,14.24-9.92,1.23,1.89,0,3.78-13.29,12.28-16.62,19.83.48,12,2.14,13.22,9.76,5.9,11.51,7.08,1.82-2.83,2.3-6.29,5.47-9,6.43-9-.48,5.43-3.1,10.39-1.43,6.13.24,6.37a74.07,74.07,0,0,1,10.24,2.36c3.8,1.22,14.75,6.61,22.13,9.91s13.1-5.19,18.33-8,12.36-5.57,13.93-7,.95-2.72-.58-3.52-3.35-1-9.06-3.09-5.48-3.31-5.24-4.78a7.64,7.64,0,0,1,2.4-4.19c1.33-1.3,6.94,1.29,8.19,1.76s6.69,4.88,8.93,5.38,3.81-7.14,3.81-11.81-1.59-6.08-3-7-10.23-6.75-13.92-9.45-8.57-3.38-9.76-3.69-1-1.5-.12-2.09,1.19-.18,4.16-.77,9.53,2.07,12.8,3.55a34.68,34.68,0,0,0,8.31,2.06,41.45,41.45,0,0,1-.58-11.51c.6-6.19-2.47-16.23-2.32-19.41s-3.68-5-3.68-5l-2.15-1.66c-2.14-1.65-4.64-7.31-6.42-10.85s-8.1-6.26-8.1-6.26,5.36-.35,7.86-.47,3.57,5.54,4.64,9.44,5.24,3.19,5.24,3.19c2.85-11.45-2.07-24-2.74-27.51a4.37,4.37,0,0,0-1.91-3.18l.06-1.18c-3.57-9.74-13.39-10.92-19.73-12a98.31,98.31,0,0,0-12.93-.56c-9.94,0-22.37.49-28,1.05"/></clipPath><linearGradient id="linear-gradient-6" x1="0.83" y1="787.02" x2="3.11" y2="787.02" gradientTransform="matrix(0, -61.97, -61.97, 0, 49146.14, 854.97)" xlink:href="#linear-gradient"/><clipPath id="clip-path-12"><rect class="cls-1" x="297.75" y="660" width="147.33" height="143.45"/></clipPath><clipPath id="clip-path-13"><path class="cls-1" d="M507.88,727.31c-2.77-.11-4.33-1.47-3.94-3,0,0,1.41-1.87,2.82-1.4s5.4,1.73,4.93,3-.9,1.49-2.91,1.49c-.27,0-.57,0-.9,0m43.38-10.81c-3.64-2.41-4.57-7.39-4.41-9.49s6.61-.13,9.23,0c4.7.23,7.4,2.57,8,4.43s-1.88,4-4,6.58a3.2,3.2,0,0,1-2.59,1.3c-1.77,0-3.87-1.26-6.23-2.82m26.68-19.19c0-1.07,4.45-1.74,4.45-1.74,3.29-.48,1.41,2.8.08,3a4.87,4.87,0,0,1-.81.06c-1.51,0-3.72-.48-3.72-1.36m-8-1.23c-3.76-1.67-11-6.34-12.92-6.34s-5.63-2.77-3.76-4,8.23-.23,11.75.93a46.39,46.39,0,0,1,10.34,5.14c1.83,1.4,3.28,1.87.7,4.24a5.22,5.22,0,0,1-2.85.74,8,8,0,0,1-3.26-.74M553.73,648.6c1.76,0,4.47.06,4.47.06s.36,3-1.18,3-5-3.1-3.29-3.1m45.34,1c-.94-.78-3.76-.71-4.46-1.64s1.41-1.17,1.41-1.17c2.58-.48,5.4,1.4,7.75,3.27s1.65,3.27,0,3.27-3.76-3-4.7-3.73M536.59,633c-1.88,2.16-1.58,4.44.23,4.9a101.08,101.08,0,0,1,12,3c6.36,2.1,4.67,3.67,3,5.36s-5-3.54-12.69-5.67-10.92,2.13-14.53,4-4.83,8.66-4.83,11.14,8.09,7.13,9.5,7.6a29.23,29.23,0,0,1,6.57,3.53c1.88,1.44-.87,3.62-2.58,2.53s-14.56-5.36-22.67-3.73S490.08,679.55,486.17,690s9.55,9.8,11,9.57,8.69-2.1,11-1.4,6.11,3,10.34,4.9,2.59,4.2,1.65,5.37-4.47-.66-9.17-1.64-13.07-.23-17.61,1.41-9.62,8.63-9.62,10.7,3.75,0,6.33,0,6.11,0,8.45,2.48-.23,1.95-6.34,1-15.27,3.5-19.26,8.94,1.49,3.5,3.06,2.8,12.68-.93,14.09-.93,4-1.64,4.7.47-.24,2.8-2.59,3.3a59.11,59.11,0,0,0-14.83,5.33c-6.4,3.39-5.37,8.17-3.92,15.64s10.31,3,11.94,2.8,5.87-3.27,8-3.5,4.69-4.9,6.11,3.27-1.42,5.83-5.17,6.77-9.13,11.9-11.51,18.9.95,13.54,3.52,18.67,9.16,3.73,11.59,3.27S510,795.7,511,792.43s0-15.4-.47-20.5,2.59-1.44,3.53.19,2.35,14.71,3.29,21,5,1.63,7.51.7,5.88-2.45,6.58-4.76.23-18.11-.7-21.84-9.32-11.67-8.93-13.78,7.28,3.89,10.57,6.3,9.16,19.84,10.1,24.51,5.17,4.9,7,3.74,5.4-5.14,7.75-7.47,0-11.52-1.18-15.87-10.22-14.94-12.45-17.51-11.47-7-14.09-9.57,2.62-2.8,8.22-1.86,18.09,13.85,20.2,16.33,6,10.16,7.75,11.13,7.29-3.43,11.47-8.56.51-11.67.28-15.4-8.69-8.64-11.22-9.57-2.41-3.81.41-8.41,3.76-3.5,7.75-3.26,8,10.27,9.17,12.37,1.45,6.07,2.82,5.37,7-7,9.16-9.34,4.22-8.64,5.12-10.73-4.42-5-7.24-6.93-9.16-8.25-7-8.71,7.75,5.6,14.28,8.87,7.56-.47,9.2-3.27,4.93-10.5,7.52-17.74-4.7-15-6.81-19.14-3.29-9.1-1.65-9.1,4.94,2.57,7.52,7.27S620,675,623,669.67s4.23-13.9,1.88-22.41-16.92-16.39-24.2-18-31.24,12.65-31.24,12.65c-.23-5.12-1.78-7.87-6.34-10.67-5.52-3.26-15.31-3.84-17.62-3.84s-7,3.44-8.92,5.59"/></clipPath><linearGradient id="linear-gradient-7" x1="4.07" y1="789.78" x2="6.36" y2="789.78" gradientTransform="matrix(104.78, 0, 0, -104.78, 2.72, 83469.42)" gradientUnits="userSpaceOnUse"><stop offset="0" stop-color="#61a89e"/><stop offset="0.19" stop-color="#61a89e"/><stop offset="0.24" stop-color="#5da399"/><stop offset="0.5" stop-color="#4e8e83"/><stop offset="0.76" stop-color="#458176"/><stop offset="1" stop-color="#427d72"/></linearGradient><clipPath id="clip-path-14"><rect class="cls-1" x="470.93" y="626.86" width="155.79" height="182.31"/></clipPath><clipPath id="clip-path-15"><path class="cls-1" d="M510.16,727.31c-2.76-.11-4.33-1.47-3.94-3,0,0,1.41-1.87,2.82-1.4s5.4,1.73,4.93,3-.9,1.49-2.91,1.49c-.27,0-.56,0-.9,0m43.39-10.81c-3.65-2.41-4.58-7.39-4.42-9.49s6.61-.13,9.24,0c4.69.23,7.4,2.57,8,4.43s-1.88,4-4,6.58a3.2,3.2,0,0,1-2.59,1.3c-1.76,0-3.87-1.26-6.22-2.82m26.67-19.19c0-1.07,4.45-1.74,4.45-1.74,3.29-.48,1.41,2.8.08,3a4.79,4.79,0,0,1-.81.06c-1.51,0-3.72-.48-3.72-1.36m-8-1.23c-3.76-1.67-11.05-6.34-12.92-6.34s-5.64-2.77-3.76-4,8.22-.23,11.74.93a46.18,46.18,0,0,1,10.34,5.14c1.84,1.4,3.28,1.87.7,4.24a5.22,5.22,0,0,1-2.85.74,7.88,7.88,0,0,1-3.25-.74M556,648.6c1.76,0,4.46.06,4.46.06s.36,3-1.17,3-5-3.1-3.29-3.1m45.33,1c-.94-.78-3.76-.71-4.46-1.64s1.41-1.17,1.41-1.17c2.58-.48,5.4,1.4,7.75,3.27s1.65,3.27,0,3.27-3.76-3-4.7-3.73M538.87,633c-1.88,2.16-1.58,4.44.24,4.9a101.62,101.62,0,0,1,12,3c6.37,2.1,4.67,3.67,3,5.36s-5-3.54-12.69-5.67-10.92,2.13-14.53,4-4.83,8.66-4.83,11.14,8.09,7.13,9.5,7.6a29.28,29.28,0,0,1,6.58,3.53c1.87,1.44-.88,3.62-2.59,2.53s-14.56-5.36-22.67-3.73S492.36,679.55,488.45,690s9.55,9.8,11,9.57,8.69-2.1,11-1.4,6.11,3,10.33,4.9,2.59,4.2,1.65,5.37-4.46-.66-9.16-1.64-13.08-.23-17.62,1.41-9.62,8.63-9.62,10.7,3.75,0,6.33,0,6.11,0,8.46,2.48-.24,1.95-6.34,1-15.27,3.5-19.27,8.94,1.49,3.5,3.06,2.8,12.68-.93,14.09-.93,4-1.64,4.7.47-.23,2.8-2.58,3.3a59.14,59.14,0,0,0-14.84,5.33c-6.39,3.39-5.37,8.17-3.92,15.64s10.31,3,11.95,2.8,5.87-3.27,8-3.5,4.7-4.9,6.11,3.27-1.41,5.83-5.17,6.77-9.12,11.9-11.51,18.9.95,13.54,3.52,18.67,9.16,3.73,11.59,3.27,12.07-12.37,13.08-15.64,0-15.4-.47-20.5,2.58-1.44,3.52.19,2.35,14.71,3.29,21,5,1.63,7.52.7,5.87-2.45,6.57-4.76.24-18.11-.7-21.84-9.32-11.67-8.93-13.78,7.28,3.89,10.57,6.3,9.16,19.84,10.1,24.51,5.17,4.9,7,3.74,5.4-5.14,7.75-7.47,0-11.52-1.17-15.87-10.22-14.94-12.45-17.51-11.47-7-14.1-9.57,2.63-2.8,8.22-1.86,18.09,13.85,20.2,16.33,6,10.16,7.76,11.13,7.28-3.43,11.47-8.56.51-11.67.27-15.4-8.69-8.64-11.22-9.57-2.4-3.81.42-8.41,3.75-3.5,7.75-3.26,8,10.27,9.16,12.37,1.45,6.07,2.82,5.37,7-7,9.16-9.34,4.22-8.64,5.13-10.73-4.43-5-7.25-6.93-9.16-8.25-7-8.71,7.75,5.6,14.29,8.87,7.55-.47,9.19-3.27,4.94-10.5,7.52-17.74-4.7-15-6.81-19.14-3.29-9.1-1.64-9.1,4.93,2.57,7.51,7.27,3.53,8.14,6.58,2.77,4.23-13.9,1.88-22.41-16.91-16.39-24.19-18-31.25,12.65-31.25,12.65c-.23-5.12-1.77-7.87-6.34-10.67-5.52-3.26-15.3-3.84-17.61-3.84s-7,3.44-8.93,5.59"/></clipPath><linearGradient id="linear-gradient-8" x1="4.09" y1="789.77" x2="6.37" y2="789.77" gradientTransform="matrix(104.78, 0, 0, -104.78, 3.38, 83467.81)" xlink:href="#linear-gradient-7"/><clipPath id="clip-path-16"><rect class="cls-1" x="473.22" y="626.86" width="155.79" height="182.31"/></clipPath><clipPath id="clip-path-17"><rect class="cls-1" x="62.02" y="604.27" width="201.61" height="227.5"/></clipPath></defs><g class="cls-2"><rect class="cls-3" x="-17.45" y="618.72" width="134.6" height="166.01"/></g><g class="cls-4"><path class="cls-5" d="M92.81,669.66c0,6.31-7.64-1.87-12.43-6.88S72.55,652.55,76.25,648a6.51,6.51,0,0,1,8.48-1.6C92,649.21,92.81,663.35,92.81,669.66ZM66.35,706.35c-.81,4.41.41,13.63-4,8.62s-7-12.83-8.48-14.43-12.52-15-9.06-17.85c0,0,3.61-2.8,6.64,0s7.13,10.43,9.09,11.63S67.16,701.94,66.35,706.35Zm-1.12-56.53c0,1.81-6.84,2.73-10,2.73s1.56-3.34,3.61-4.81,6.06,0,6.06,0S65.23,648,65.23,649.82ZM33,743.44c0,3.21,0,11.23-2.85,14s-2.77-8.82-2.77-12,2-7.21,2-7.21C30.47,733.6,33,740.23,33,743.44ZM10,693.51c-5.32,1.4-1.61-5.4,3.25-7a34.92,34.92,0,0,1,9.68-1.6C26.56,685.7,15.32,692.12,10,693.51ZM99,645.4c-9.09-15-16.15-15.53-23.73-12s-27.77,16-27.77,16c.86-16.55-6.57-29.07-14.65-30.58S12.12,630.75,3,639.32s-16.32,20.62-18.17,29.14,5,2.67,8.58-2,14.64-11,23.73-12,1,5-4.54,6.68S-10.6,672.47-13.29,677s-4.16,20-4.16,27.06,4.16,4.12,7.65,1.51S-2.52,698-.5,697,4,698,2,700a50.61,50.61,0,0,0-8.58,10c-4,6-2.23,12.53,0,10A152.4,152.4,0,0,1,5.56,708.16c3-2.4,6.56,3.07,7.07,4.91s-.51,6-1,10S2.53,726.6-3.53,728.6s-4.13,9-4.13,13.54,1.1,1,3.12-.51,6.56-1,6.56,2-6.56,8.52-8.58,15.54S2,784.74,5.05,784.74s7.07-4,7.07-4c0,2.5,4-1,10.1-3.28s4-9.42,6.77-10.76-.21,5.34.8,8.52,6.57.51,12.12-3.84,15.91-16.7,19.19-22.22,2-17,2-20.55,5.05-2,4.54,1a9.23,9.23,0,0,0,3,9c3,2.5,7.56-5.52,17.66-10s6.1-9,8.58-15S94.47,691.18,94.47,686s0-9,3.49-7,4.55,15.54,5.05,17.55,6.06,2.5,10.1-11S108.06,660.44,99,645.4Z"/><path class="cls-6" d="M47.23,653.58s-10.48,18.86-19.31,49-9.24,30.9-9.24,30.9"/><path class="cls-7" d="M46.34,647.46l-.12,3.95,4.55-2.57s10.43-24.33,16.58-27.19c0,0-1.13-3-2.93-2.28S56.82,626.1,53.67,632s-7.33,15.43-7.33,15.43"/><path class="cls-5" d="M46.34,647.46l-.12,3.95,4.55-2.57s10.43-24.33,16.58-27.19c0,0-1.13-3-2.93-2.28S56.82,626.1,53.67,632,46.34,647.46,46.34,647.46Z"/></g><g class="cls-8"><rect class="cls-9" x="152.84" y="577.92" width="191.85" height="231.43" transform="translate(-486.57 741.57) rotate(-74)"/></g><g class="cls-10"><path class="cls-5" d="M272.67,682.91C264.3,684.5,270.56,677,274,677,280.66,676.43,278.91,681.61,272.67,682.91Zm-27.07,2.32c0,1.46-3.61,1.56-8.78,1.88-13.93-.48,2.24-10.81,7.56-3.48A1.47,1.47,0,0,1,245.6,685.23Zm-20.45-12.52c-4.38-1.84-9.3-3.13-10.41-4.38s-2-3.92.31-3.25c0,0,8.67,2,10.49,4.44S229.52,674.54,225.15,672.71Zm122.93,79.61c.67-2.31-5-17.48-8.22-20.07C328,723,314.15,713.08,305.5,702c-.92-1.92-4.44-7.93-8.49-8.46-7.89-1.81-4.66-3.85-1.16-3.24,6.06,1.64,2.07-10.38-1.42-11.84-3.4-2-6.08-5.15-10-3.68s-7.37,1.84-4.95,0c2.75-3,16.94-1,11.2-7.45-6-3.83-20.6-10.51-28.83-8.4-4.84,2-19.65,7.35-22.15,8.72s-5,2-3.24-1.13c6.18-7.79,20.77-5.8,27.5-12.21,1.25-2.14,3.71-4.37-2.36-7.13s-15.88-8.48-18.14-7.25-16,12.18-18.29,16.91c-2.51,9.16-15.35.7-14.32-4.28-.16-6.47,18.78-13.71,21.59-15.76-1-4.59-13.22-6.91-16.74-8.28-1.2-.34-3.22-2.92-8.6,1.63-11,9-15.15,11.31-11.33,24.38,1.62,4.56.78,9.41-.93,8.92-4.38-1.92-6.12-13.56-8.13-17.33-1.12-7.58-1.92-16,6.49-19.43-4.88-8.18-35.15-4.74-39.27,3.85,0,2.1-1.26,16-.84,18.16-7.42-10.18-1.75,7.18-.35,11.37,1.35,5,8.19,10.19,18.84,12.31,0,0-18.73,7.08-17.33,12.28s2,9.75,10.71,12.43c0,0,4-2.83,6.47-2.75s-.12,4-.3,4.68,11.51,2.61,11.9,1.74c1.91-9.89,12.49-15.86,22.31-18.26,3.57-1.43,9.92-3,7-.11-6,5.13-20.5,6-16.4,16.72,3.07,6.09-.27,7.11,8.07,7,10.85-.75,24.65,9.33,24.61-2.18-1.37-1.85-5.18-6.58-3-9s6.89,1.88,6.84,4.24c3.57,8.36,29.66,21.28,37.84,23.27,3.49-.45,10.77-.15,5.47-5.12-15.47-14,11.31-16,9.4-9.22-.94,4.21-4.65,9.62-.69,16.93,2.85,3.1,26,16.83,28.79,11.08,2.08-10.23,8.85,22.49,16.66,23.68,13.62,6.49,16.12,5.83,12.52-6.21C342.5,753.65,347.41,754.63,348.08,752.32Z"/></g><g class="cls-11"><rect class="cls-12" x="295.83" y="662.13" width="146.39" height="143.3"/></g><g class="cls-13"><path class="cls-5" d="M409.38,743.78c-1.47-.2-3-2.57-3.88-2.57s-1.12-1.88,3.88.24C409.38,741.45,410.84,744,409.38,743.78Zm-13.33,15.38c-2.82,1.34-7.38,3.19-11.43,4.72s-11.23,4.49-10.47,1.65,10.23-9.95,13.33-11.33L392,753s5.95.25,6.67,1.66S398.86,757.82,396.05,759.16Zm-1-86.82c-1.75,0-8.65.86-13.26.86s-4.52,1-4.6,0,2-2.22,2-2.22c2.38-2.24,5.71-2.53,8.62-2.53s7.25-3,9.7.29S396.76,672.34,395,672.34ZM377.72,740a9.26,9.26,0,0,0,4-1.33s1.91,0,1.19,1.33-3.8,2.17-6.29,2.17S375.81,740,377.72,740Zm-23.37-56.1c-.28,1.06-5.67.24-5.67-1.06s3.81-1.77,3.81-1.77C354.83,680.53,354.63,682.79,354.35,683.85Zm-28.76,9.21c-7.07.47-1.43-2.4,1.43-4.25s11.46-3.07,11.46-3.07C346.53,683.14,332.65,692.59,325.59,693.06Zm115.13,56.42a41.45,41.45,0,0,1-.58-11.51c.6-6.19-2.48-16.23-2.32-19.41s-3.69-5-3.69-5L432,712c-2.14-1.66-4.64-7.32-6.43-10.86s-8.09-6.26-8.09-6.26,5.36-.35,7.85-.47,3.58,5.55,4.65,9.44S435.2,707,435.2,707c2.86-11.45-2.06-24-2.73-27.51a4.37,4.37,0,0,0-1.91-3.18l.06-1.18c-3.57-9.74-13.39-10.92-19.74-12s-32-.4-41,.49-11,9.15-11,9.15a40.46,40.46,0,0,0-19.28-9.45c-6.78-1.18-21.42,2.13-24,3.54s-3.33,5.67-2.38,6.1,7.14-3.26,9.52-3.73.24,1.18-1.43,2.12A158.47,158.47,0,0,0,308,680.55c-3.09,2.59-8.33,10.15-9.76,12.27s-1.9,5-2.14,8.66.71,8.1,2.14,8.34,3.81-3.3,6.55-6.37,5.59-6.14,9.92-6.89,2.1,1.93,1.15,3.35-8.57,8.49-12.38,11.56-4.05,5.67-3.65,6.85,1.27,5,3.41,7.55,4.76,1.66,8.33-1.88,19-9.92,24.52-10.86,8.81,3.06,5.4,4.09-6,2-12.9,5.58-15.35,9.92-17.25,14.64,4.36,11.1,5.47,12.24,7.38,5.7,8.81,3.81,8.09-9.67,11.66-11.56,2.86.47,1.67,1.18-5,8-7.15,13.22,5.48,7.79,8.81,10.62,6.19-2.36,7.23-4,1.58-4.25,4.2-8.5,11.19-9,14.24-9.92,1.23,1.89,0,3.78S353,760.58,349.63,768.13s.48,12,2.14,13.22,9.76,5.9,11.51,7.08,1.82-2.83,2.3-6.29,5.47-9,6.42-9-.47,5.43-3.09,10.39-1.43,6.13.24,6.37a75.52,75.52,0,0,1,10.23,2.36c3.81,1.22,14.76,6.61,22.14,9.92s13.09-5.2,18.33-8,12.36-5.57,13.92-7,1-2.72-.57-3.53-3.35-1-9.06-3.08-5.48-3.31-5.24-4.78a7.64,7.64,0,0,1,2.4-4.19c1.33-1.3,6.94,1.29,8.19,1.76s6.69,4.88,8.93,5.37,3.81-7.13,3.81-11.8-1.59-6.08-3-7-10.23-6.75-13.93-9.44-8.56-3.39-9.76-3.7-.95-1.5-.11-2.09,1.19-.18,4.16-.76,9.52,2.06,12.8,3.54A34.68,34.68,0,0,0,440.72,749.48Z"/><path class="cls-6" d="M360.72,675.21s12.56,11.32,26.32,41.12S411,773.94,412.16,789"/><path class="cls-7" d="M360.47,667.94s-3.24-6.81-6.47-7.26-6.93.41-8.09,3.5l3.23,1.8s1.63-2.43,2.37-1.21a24.86,24.86,0,0,1,1.6,4.78l6,4.07,1.82-4.07Z"/><path class="cls-14" d="M360.47,667.94s-3.24-6.81-6.47-7.26-6.93.41-8.09,3.5l3.23,1.8s1.63-2.43,2.37-1.21a24.86,24.86,0,0,1,1.6,4.78l6,4.07,1.82-4.07Z"/></g><g class="cls-15"><rect class="cls-16" x="-15.16" y="618.72" width="134.6" height="166.01"/></g><g class="cls-17"><path class="cls-5" d="M95.09,669.66c0,6.31-7.63-1.87-12.42-6.88S74.83,652.55,78.53,648a6.52,6.52,0,0,1,8.49-1.6C94.29,649.21,95.09,663.35,95.09,669.66ZM68.63,706.35c-.8,4.41.41,13.63-4,8.62s-7-12.83-8.48-14.43-12.52-15-9-17.85c0,0,3.6-2.8,6.63,0s7.13,10.43,9.09,11.63S69.44,701.94,68.63,706.35Zm-1.12-56.53c0,1.81-6.84,2.73-10,2.73s1.55-3.34,3.6-4.81,6.06,0,6.06,0S67.51,648,67.51,649.82ZM35.27,743.44c0,3.21,0,11.23-2.84,14s-2.78-8.82-2.78-12,2-7.21,2-7.21C32.75,733.6,35.27,740.23,35.27,743.44Zm-23-49.93c-5.32,1.4-1.61-5.4,3.25-7a34.92,34.92,0,0,1,9.68-1.6C28.85,685.7,17.6,692.12,12.28,693.51Zm89-48.11c-9.09-15-16.14-15.53-23.73-12s-27.77,16-27.77,16c.86-16.55-6.57-29.07-14.64-30.58s-20.7,11.91-29.79,20.48S-11,659.94-12.86,668.46s5.05,2.67,8.58-2,14.65-11,23.73-12,1,5-4.54,6.68S-8.32,672.47-11,677s-4.15,20-4.15,27.06,4.15,4.12,7.64,1.51S-.24,698,1.78,697s4.55,1,2.53,3a50.55,50.55,0,0,0-8.59,10c-4,6-2.23,12.53,0,10A152.4,152.4,0,0,1,7.84,708.16c3-2.4,6.57,3.07,7.07,4.91s-.5,6-1,10S4.81,726.6-1.25,728.6s-4.13,9-4.13,13.54,1.1,1,3.12-.51,6.57-1,6.57,2-6.57,8.52-8.59,15.54,8.59,25.56,11.62,25.56,7.07-4,7.07-4c0,2.5,4-1,10.09-3.28s4-9.42,6.77-10.76-.2,5.34.81,8.52,6.56.51,12.12-3.84,15.91-16.7,19.18-22.22,2-17,2-20.55,5-2,4.55,1a9.22,9.22,0,0,0,3,9c3,2.5,7.56-5.52,17.66-10s6.1-9,8.58-15S96.75,691.18,96.75,686s0-9,3.49-7,4.55,15.54,5.05,17.55,6.06,2.5,10.1-11S110.34,660.44,101.25,645.4Z"/><path class="cls-6" d="M49.51,653.58S39,672.44,30.2,702.54,21,733.44,21,733.44"/><path class="cls-7" d="M48.62,647.46l-.12,3.95,4.55-2.57s10.43-24.33,16.58-27.19c0,0-1.13-3-2.93-2.28S59.11,626.1,56,632s-7.33,15.43-7.33,15.43"/><path class="cls-5" d="M48.62,647.46l-.12,3.95,4.55-2.57s10.43-24.33,16.58-27.19c0,0-1.13-3-2.93-2.28S59.11,626.1,56,632,48.62,647.46,48.62,647.46Z"/></g><g class="cls-18"><rect class="cls-19" x="155.12" y="577.92" width="191.85" height="231.43" transform="translate(-484.91 743.76) rotate(-74)"/></g><g class="cls-20"><path class="cls-5" d="M275,682.91c-8.37,1.59-2.11-5.95,1.37-5.87C283,676.43,281.19,681.61,275,682.91Zm-27.07,2.32c0,1.46-3.61,1.56-8.78,1.88-13.93-.48,2.24-10.81,7.56-3.48A1.47,1.47,0,0,1,247.88,685.23Zm-20.45-12.52c-4.38-1.84-9.29-3.13-10.4-4.38s-2-3.92.31-3.25c0,0,8.66,2,10.49,4.44S231.81,674.54,227.43,672.71Zm122.93,79.61c.67-2.31-5-17.48-8.22-20.07-11.86-9.3-25.71-19.17-34.36-30.21-.92-1.92-4.44-7.93-8.49-8.46-7.89-1.81-4.66-3.85-1.16-3.24,6.07,1.64,2.08-10.38-1.41-11.84-3.41-2-6.08-5.15-10-3.68s-7.36,1.84-4.95,0c2.75-3,16.94-1,11.2-7.45-6-3.83-20.6-10.51-28.83-8.4-4.84,2-19.64,7.35-22.14,8.72s-5,2-3.25-1.13c6.19-7.79,20.77-5.8,27.5-12.21,1.25-2.14,3.72-4.37-2.35-7.13S248,638.76,245.77,640s-16,12.18-18.29,16.91c-2.51,9.16-15.34.7-14.32-4.28-.16-6.47,18.78-13.71,21.59-15.76-1-4.59-13.22-6.91-16.74-8.28-1.19-.34-3.22-2.92-8.6,1.63-11,9-15.15,11.31-11.33,24.38,1.62,4.56.78,9.41-.93,8.92C192.78,661.59,191,650,189,646.18c-1.12-7.58-1.92-16,6.5-19.43-4.89-8.18-35.16-4.74-39.28,3.85,0,2.1-1.26,16-.84,18.16-7.41-10.18-1.74,7.18-.34,11.37,1.34,5,8.18,10.19,18.83,12.31,0,0-18.73,7.08-17.32,12.28s2,9.75,10.7,12.43c0,0,4-2.83,6.47-2.75s-.11,4-.3,4.68,11.51,2.61,11.9,1.74c1.91-9.89,12.49-15.86,22.32-18.26,3.56-1.43,9.91-3,7-.11-6,5.13-20.49,6-16.4,16.72,3.08,6.09-.27,7.11,8.07,7,10.85-.75,24.65,9.33,24.61-2.18-1.37-1.85-5.18-6.58-2.94-9s6.88,1.88,6.83,4.24c3.57,8.36,29.66,21.28,37.84,23.27,3.49-.45,10.77-.15,5.48-5.12-15.48-14,11.3-16,9.39-9.22-.94,4.21-4.64,9.62-.69,16.93,2.86,3.1,26,16.83,28.79,11.08,2.08-10.23,8.85,22.49,16.67,23.68,13.62,6.49,16.12,5.83,12.51-6.21C344.78,753.65,349.69,754.63,350.36,752.32Z"/></g><g class="cls-21"><rect class="cls-22" x="298.11" y="662.13" width="146.39" height="143.3"/></g><g class="cls-23"><path class="cls-5" d="M411.66,743.78c-1.47-.2-3-2.57-3.87-2.57s-1.13-1.88,3.87.24C411.66,741.45,413.13,744,411.66,743.78Zm-13.33,15.38c-2.82,1.34-7.38,3.19-11.43,4.72s-11.23,4.49-10.47,1.65,10.23-9.95,13.33-11.33l4.52-1.18s6,.25,6.67,1.66S401.15,757.82,398.33,759.16Zm-1-86.82c-1.75,0-8.65.86-13.25.86s-4.53,1-4.61,0,2-2.22,2-2.22c2.38-2.24,5.71-2.53,8.62-2.53s7.25-3,9.71.29S399,672.34,397.3,672.34ZM380,740a9.32,9.32,0,0,0,4.05-1.33s1.9,0,1.19,1.33-3.81,2.17-6.29,2.17S378.1,740,380,740Zm-23.37-56.1c-.28,1.06-5.67.24-5.67-1.06s3.81-1.77,3.81-1.77C357.11,680.53,356.91,682.79,356.63,683.85Zm-28.76,9.21c-7.06.47-1.43-2.4,1.43-4.25s11.46-3.07,11.46-3.07C348.82,683.14,334.93,692.59,327.87,693.06ZM443,749.48a41.45,41.45,0,0,1-.58-11.51c.6-6.19-2.47-16.23-2.32-19.41s-3.68-5-3.68-5L434.27,712c-2.14-1.66-4.64-7.32-6.43-10.86s-8.09-6.26-8.09-6.26,5.36-.35,7.86-.47,3.57,5.55,4.64,9.44,5.24,3.19,5.24,3.19c2.85-11.45-2.07-24-2.74-27.51a4.37,4.37,0,0,0-1.9-3.18l0-1.18c-3.57-9.74-13.39-10.92-19.73-12s-32-.4-41,.49-11,9.15-11,9.15a40.42,40.42,0,0,0-19.28-9.45c-6.78-1.18-21.42,2.13-24,3.54s-3.33,5.67-2.38,6.1,7.14-3.26,9.52-3.73.24,1.18-1.42,2.12a156.81,156.81,0,0,0-13.34,9.21c-3.09,2.59-8.33,10.15-9.75,12.27s-1.91,5-2.15,8.66.72,8.1,2.15,8.34,3.8-3.3,6.54-6.37,5.59-6.14,9.92-6.89,2.1,1.93,1.15,3.35-8.57,8.49-12.38,11.56-4.05,5.67-3.65,6.85,1.27,5,3.41,7.55,4.76,1.66,8.34-1.88,19-9.92,24.51-10.86,8.81,3.06,5.4,4.09-5.95,2-12.9,5.58-15.35,9.92-17.25,14.64,4.36,11.1,5.47,12.24,7.38,5.7,8.81,3.81,8.09-9.67,11.66-11.56,2.86.47,1.67,1.18-5,8-7.14,13.22,5.47,7.79,8.81,10.62,6.19-2.36,7.22-4,1.58-4.25,4.2-8.5,11.19-9,14.24-9.92,1.23,1.89,0,3.78-13.29,12.28-16.62,19.83.48,12,2.14,13.22,9.76,5.9,11.51,7.08,1.82-2.83,2.3-6.29,5.47-9,6.43-9-.48,5.43-3.1,10.39-1.43,6.13.24,6.37a75.59,75.59,0,0,1,10.24,2.36c3.8,1.22,14.75,6.61,22.13,9.92s13.1-5.2,18.33-8,12.36-5.57,13.93-7,.95-2.72-.58-3.53-3.35-1-9.06-3.08-5.48-3.31-5.24-4.78a7.64,7.64,0,0,1,2.4-4.19c1.33-1.3,6.94,1.29,8.19,1.76s6.69,4.88,8.93,5.37,3.81-7.13,3.81-11.8-1.59-6.08-3-7-10.23-6.75-13.92-9.44-8.57-3.39-9.76-3.7-1-1.5-.12-2.09,1.19-.18,4.16-.76,9.53,2.06,12.8,3.54A34.68,34.68,0,0,0,443,749.48Z"/><path class="cls-6" d="M363,675.21s12.56,11.32,26.32,41.12,23.93,57.61,25.12,72.69"/><path class="cls-7" d="M362.75,667.94s-3.24-6.81-6.47-7.26-6.93.41-8.09,3.5l3.24,1.8s1.62-2.43,2.37-1.21a24.63,24.63,0,0,1,1.59,4.78l6,4.07,1.82-4.07Z"/><path class="cls-24" d="M362.75,667.94s-3.24-6.81-6.47-7.26-6.93.41-8.09,3.5l3.24,1.8s1.62-2.43,2.37-1.21a24.63,24.63,0,0,1,1.59,4.78l6,4.07,1.82-4.07Z"/></g><g class="cls-25"><rect class="cls-26" x="427.63" y="598.16" width="240.94" height="241.05" transform="translate(-347.23 594.93) rotate(-44.8)"/></g><g class="cls-27"><path class="cls-5" d="M603.77,653.33c-1.66,0-3.76-3-4.7-3.73s-3.76-.7-4.46-1.64S596,646.8,596,646.8c2.58-.49,5.4,1.39,7.75,3.26S605.42,653.33,603.77,653.33Zm-21.31,45.28c-1.33.23-4.52-.24-4.52-1.3s4.45-1.74,4.45-1.74C585.68,695.09,583.8,698.37,582.46,698.61Zm-6.41-2.53s-2.35,1.67-6.11,0-11-6.34-12.92-6.34-5.63-2.78-3.76-4,8.23-.23,11.75.93a46.39,46.39,0,0,1,10.34,5.14C577.18,693.24,578.63,693.71,576.05,696.08ZM557,651.7c-1.53,0-5-3.09-3.29-3.09s4.47,0,4.47,0S558.55,651.7,557,651.7ZM556.08,707c4.7.23,7.4,2.57,8,4.43s-1.88,4-4,6.58-5.17.89-8.82-1.52-4.57-7.39-4.41-9.49S553.46,706.88,556.08,707Zm-44.39,18.83c-.47,1.24-1,1.59-3.81,1.47s-4.33-1.47-3.94-3c0,0,1.41-1.87,2.82-1.4S512.16,724.61,511.69,725.84Zm113.22-78.58c-2.35-8.5-16.92-16.39-24.2-18S569.47,642,569.47,642c-.23-5.13-1.78-7.87-6.34-10.68-5.52-3.26-15.31-3.84-17.62-3.84s-7,3.44-8.92,5.6-1.58,4.43.23,4.9a98.19,98.19,0,0,1,12,3c6.37,2.1,4.67,3.67,3,5.36s-5-3.54-12.69-5.67-10.92,2.13-14.53,4-4.83,8.66-4.83,11.14,8.09,7.13,9.5,7.59a29.73,29.73,0,0,1,6.57,3.54c1.88,1.44-.87,3.62-2.58,2.53s-14.56-5.37-22.67-3.73S490.08,679.55,486.16,690s9.56,9.8,11,9.57,8.69-2.1,11-1.4,6.1,3,10.33,4.9,2.59,4.2,1.65,5.37-4.47-.66-9.16-1.63-13.08-.24-17.62,1.4-9.62,8.63-9.62,10.7,3.75,0,6.33,0,6.11,0,8.45,2.48-.23,1.95-6.34,1-15.26,3.51-19.26,8.95,1.49,3.5,3.06,2.8,12.68-.93,14.09-.93,4-1.64,4.7.47-.24,2.8-2.59,3.3a59.25,59.25,0,0,0-14.83,5.33c-6.4,3.39-5.37,8.17-3.92,15.64s10.31,3,11.94,2.8,5.87-3.27,8-3.5,4.69-4.9,6.11,3.27-1.42,5.83-5.17,6.76-9.12,11.91-11.51,18.91.95,13.53,3.52,18.67,9.16,3.73,11.59,3.27S510,795.7,511,792.43s0-15.4-.47-20.5,2.58-1.44,3.52.19,2.35,14.71,3.29,21,5,1.63,7.51.7,5.88-2.45,6.58-4.76.24-18.11-.7-21.85-9.32-11.67-8.93-13.77,7.28,3.89,10.57,6.31,9.16,19.83,10.1,24.5,5.17,4.9,7,3.74,5.4-5.14,7.75-7.47,0-11.52-1.18-15.87-10.21-14.94-12.45-17.51-11.47-7-14.09-9.57,2.62-2.8,8.22-1.86,18.09,13.84,20.2,16.33,6,10.16,7.76,11.13,7.28-3.42,11.46-8.56.51-11.67.28-15.4-8.69-8.64-11.22-9.57-2.41-3.81.41-8.4,3.76-3.51,7.75-3.27,8,10.27,9.17,12.37,1.44,6.07,2.82,5.37,7-7,9.15-9.34,4.23-8.64,5.13-10.74-4.42-5-7.24-6.92-9.16-8.25-7-8.71,7.75,5.6,14.28,8.87,7.56-.47,9.2-3.27,4.94-10.5,7.52-17.74-4.7-15-6.81-19.14-3.29-9.1-1.65-9.1,4.94,2.57,7.52,7.27S620,675,623,669.67,627.26,655.77,624.91,647.26Z"/><path class="cls-7" d="M541.75,685.35s-19.14,30.77-28.85,63.89"/><path class="cls-6" d="M541.75,685.35s-19.14,30.77-28.85,63.89"/></g><g class="cls-28"><rect class="cls-29" x="429.91" y="598.16" width="240.94" height="241.05" transform="translate(-346.56 596.54) rotate(-44.8)"/></g><g class="cls-30"><path class="cls-5" d="M606.05,653.33c-1.66,0-3.76-3-4.7-3.73s-3.76-.7-4.46-1.64,1.41-1.16,1.41-1.16c2.58-.49,5.4,1.39,7.75,3.26S607.7,653.33,606.05,653.33Zm-21.3,45.28c-1.34.23-4.53-.24-4.53-1.3s4.45-1.74,4.45-1.74C588,695.09,586.08,698.37,584.75,698.61Zm-6.42-2.53s-2.35,1.67-6.11,0-11-6.34-12.91-6.34-5.64-2.78-3.76-4,8.22-.23,11.74.93a46,46,0,0,1,10.34,5.14C579.47,693.24,580.92,693.71,578.33,696.08Zm-19-44.38c-1.53,0-5-3.09-3.29-3.09s4.46,0,4.46,0S560.84,651.7,559.31,651.7ZM558.37,707c4.7.23,7.4,2.57,8,4.43s-1.88,4-4,6.58-5.17.89-8.81-1.52-4.58-7.39-4.42-9.49S555.74,706.88,558.37,707ZM514,725.84c-.47,1.24-1,1.59-3.81,1.47s-4.33-1.47-3.94-3c0,0,1.41-1.87,2.82-1.4S514.44,724.61,514,725.84Zm113.22-78.58c-2.35-8.5-16.91-16.39-24.2-18S571.75,642,571.75,642c-.23-5.13-1.77-7.87-6.34-10.68-5.52-3.26-15.3-3.84-17.61-3.84s-7,3.44-8.93,5.6-1.58,4.43.24,4.9a98.68,98.68,0,0,1,12,3c6.37,2.1,4.67,3.67,3,5.36s-5-3.54-12.69-5.67-10.92,2.13-14.52,4-4.84,8.66-4.84,11.14,8.09,7.13,9.5,7.59a29.77,29.77,0,0,1,6.58,3.54c1.87,1.44-.88,3.62-2.59,2.53s-14.56-5.37-22.67-3.73S492.36,679.55,488.45,690s9.55,9.8,11,9.57,8.69-2.1,11-1.4,6.1,3,10.33,4.9,2.59,4.2,1.65,5.37-4.46-.66-9.16-1.63-13.08-.24-17.62,1.4-9.62,8.63-9.62,10.7,3.75,0,6.33,0,6.11,0,8.46,2.48-.24,1.95-6.34,1-15.27,3.51-19.27,8.95,1.49,3.5,3.06,2.8,12.68-.93,14.09-.93,4-1.64,4.7.47-.23,2.8-2.58,3.3a59.14,59.14,0,0,0-14.84,5.33c-6.4,3.39-5.37,8.17-3.92,15.64s10.31,3,11.94,2.8,5.88-3.27,8-3.5,4.7-4.9,6.11,3.27-1.41,5.83-5.17,6.76-9.12,11.91-11.51,18.91.95,13.53,3.52,18.67,9.17,3.73,11.59,3.27,12.07-12.37,13.08-15.64,0-15.4-.47-20.5,2.58-1.44,3.52.19,2.35,14.71,3.29,21,5,1.63,7.52.7,5.87-2.45,6.57-4.76.24-18.11-.7-21.85-9.32-11.67-8.93-13.77,7.28,3.89,10.57,6.31,9.16,19.83,10.1,24.5,5.17,4.9,7,3.74,5.4-5.14,7.75-7.47,0-11.52-1.17-15.87-10.22-14.94-12.45-17.51-11.47-7-14.1-9.57,2.63-2.8,8.22-1.86,18.09,13.84,20.21,16.33,6,10.16,7.75,11.13,7.28-3.42,11.47-8.56.51-11.67.27-15.4-8.69-8.64-11.22-9.57-2.4-3.81.42-8.4,3.75-3.51,7.75-3.27,8,10.27,9.16,12.37,1.45,6.07,2.82,5.37,7-7,9.16-9.34,4.23-8.64,5.13-10.74-4.43-5-7.25-6.92-9.16-8.25-7-8.71,7.75,5.6,14.29,8.87,7.55-.47,9.2-3.27,4.93-10.5,7.51-17.74-4.69-15-6.81-19.14-3.29-9.1-1.64-9.1,4.93,2.57,7.51,7.27,3.53,8.13,6.58,2.77S629.54,655.77,627.19,647.26Z"/><path class="cls-7" d="M544,685.35s-19.14,30.77-28.85,63.89"/><path class="cls-6" d="M544,685.35s-19.14,30.77-28.85,63.89"/></g><g class="cls-31"><path class="cls-32" d="M186.32,752.44S185,767.83,185,773.82s1.06,12.25,3.52,12.42c10.33.7,8-2.81,8.54-19.38.15-4.29,0-14.42,0-14.42s-5.36-7.87-10.72,0"/><path class="cls-33" d="M186.32,752.44S185,767.83,185,773.82s1.06,12.25,3.52,12.42c10.33.7,8-2.81,8.54-19.38.15-4.29,0-14.42,0-14.42S191.68,744.57,186.32,752.44Z"/><path class="cls-32" d="M99.63,710.87s-5.71,45.63-5,63.52,1.05,52.24,4.32,55.57c1.94,2,17.69.76,18.38-2.55,1.32-6.4,1.93-50.94,2.48-54.94.86-6.32,2.23-13.8,19.12-13.88,23.19-.11,20.77,12.46,21.8,32.29,0,0,2.17,21,2.17,29.74s21.88,7.08,21.53-.85,0-46.3,0-52.58c0-4.53,3.23-16,14.6-19.31,4.44-1.3-.59.62,7.82-.33,0,0,1.6,3.78,2.28,19.64s-3.71,23.69,11.19,23.18c4.37-.15,5.82-23.37,6.51-35.5s0-40,0-46.06-13.47-13.37-18.15-14.93-34.8-1.9-55.83-.28-53.19,17.27-53.19,17.27"/><path class="cls-33" d="M99.63,710.87s-5.71,45.63-5,63.52,1.05,52.24,4.32,55.57c1.94,2,17.69.76,18.38-2.55,1.32-6.4,1.93-50.94,2.48-54.94.86-6.32,2.23-13.8,19.12-13.88,23.19-.11,20.77,12.46,21.8,32.29,0,0,2.17,21,2.17,29.74s21.88,7.08,21.53-.85,0-46.3,0-52.58c0-4.53,3.23-16,14.6-19.31,4.44-1.3-.59.62,7.82-.33,0,0,1.6,3.78,2.28,19.64s-3.71,23.69,11.19,23.18c4.37-.15,5.82-23.37,6.51-35.5s0-40,0-46.06-13.47-13.37-18.15-14.93-34.8-1.9-55.83-.28S99.63,710.87,99.63,710.87Z"/><path class="cls-32" d="M199.45,626.69a34.55,34.55,0,0,1,1.75-3.88c2.51-4,3.26-6.9,12.56-10.87,11.94-5.08,39.8-2,42.35,7.29s-1.43,25.77-4.84,44.41c0,0-12.91,38.89-23.14,44-9.57,4.76-29-10.73-33.91-14.51"/><path class="cls-33" d="M199.45,626.69a34.55,34.55,0,0,1,1.75-3.88c2.51-4,3.26-6.9,12.56-10.87,11.94-5.08,39.8-2,42.35,7.29s-1.43,25.77-4.84,44.41c0,0-12.91,38.89-23.14,44-9.57,4.76-29-10.73-33.91-14.51"/></g><line class="cls-5" x1="178.5" y1="693.17" x2="178.5" y2="707.28"/><g class="cls-31"><path class="cls-34" d="M185.68,698.6l8.24-8.76s3.24,16.81,1.78,24.85-2.69,24.12-6.36,24.12-1.3-15.23-1.3-21.58-2.36-18.63-2.36-18.63"/><path class="cls-6" d="M185.68,698.6l8.24-8.76s3.24,16.81,1.78,24.85-2.69,24.12-6.36,24.12-1.3-15.23-1.3-21.58S185.68,698.6,185.68,698.6Z"/><path class="cls-5" d="M202.81,641.9s2.21,19.45.81,26c-1.24,5.86-7,17.3-7,17.3"/><path class="cls-32" d="M126.35,619s-22.7-10.89-32.64-10.89-32.06,5.52-30.79,24.61S80.38,689.55,83.78,693c0,0,1.28,24,6,25.7S120,706.94,126.35,704l6.38-3"/><path class="cls-33" d="M126.35,619s-22.7-10.89-32.64-10.89-32.06,5.52-30.79,24.61S80.38,689.55,83.78,693c0,0,1.28,24,6,25.7S120,706.94,126.35,704l6.38-3"/><path class="cls-34" d="M129.33,692.75s-4.2,30.33-1.1,40.69,6,17.12,5.5,7.44-.23-24.06,1.86-36.1Z"/><path class="cls-6" d="M129.33,692.75s-4.2,30.33-1.1,40.69,6,17.12,5.5,7.44-.23-24.06,1.86-36.1Z"/><path class="cls-32" d="M196.83,684.75s-5.25,6.73-5.94,7.48c-2.77,3-9,12.32-12.45,14.21,0,0-.62,18.6,6,22.85s17.11,10.2,30.82,0,23.55-20.48,30.39-32.38c0,0-2.14-13.17-15.42-6.8L226,685s8-7.65,13.84-6.37,21.29,11.05,17,22.52-25.41,43.06-48,48.44-48.4-6.23-56.1-20.11a227.48,227.48,0,0,0-15.42-24.08,212.32,212.32,0,0,1-11.14-18.7c-4.28-8.5-13.81-13.51-9.42-46.74,3.21-24.32,21.41-34.85,42.83-34.85,18,0,34.16,13.8,38.87,18.21.9.84,1.38,1.34,1.38,1.34"/><path class="cls-33" d="M196.83,684.75s-5.25,6.73-5.94,7.48c-2.77,3-9,12.32-12.45,14.21,0,0-.62,18.6,6,22.85s17.11,10.2,30.82,0,23.55-20.48,30.39-32.38c0,0-2.14-13.17-15.42-6.8L226,685s8-7.65,13.84-6.37,21.29,11.05,17,22.52-25.41,43.06-48,48.44-48.4-6.23-56.1-20.11a227.48,227.48,0,0,0-15.42-24.08,212.32,212.32,0,0,1-11.14-18.7c-4.28-8.5-13.81-13.51-9.42-46.74,3.21-24.32,21.41-34.85,42.83-34.85,18,0,34.16,13.8,38.87,18.21.9.84,1.38,1.34,1.38,1.34"/><path class="cls-5" d="M130.67,646s6.83-4,11.1-4"/><path class="cls-5" d="M173,640.74s8.72.7,10.73,3.48"/><path class="cls-35" d="M238.88,701.3s-8.73.42-7.93,3.07c.38,1.27,6.07,3,12.66,3s10.56-1.93,9.29-3.72c-1.16-1.63-5.92-2.3-14-2.3"/><path class="cls-35" d="M240.49,703.6s.55-4.63,1.12-10.09c.78-7.43.71-7.94-2-10.58s-2.07-15.34-2.07-15.34a34,34,0,0,1,9.63-1.26c3.78.15,9.4,2.48,9.4,2.48s-1.31,10.68-3.37,13.59c-1.91,2.68-6.81,3.72-7.5,5.23s-2.06,12.3-2.06,16.74"/><path class="cls-36" d="M239.11,672.06s2.92-.18,6.9-.26a28.9,28.9,0,0,1,7.76,1s-.53,7.12-4.33,9.68c-3.34,2.26-6.54,1.59-9-2.56-1.88-3.19-1.35-7.86-1.35-7.86"/><path class="cls-5" d="M239.58,673.13a25.28,25.28,0,0,0,13.07.49"/><path class="cls-5" d="M238.56,668.83s4.88,2.06,15.79.54"/><path class="cls-32" d="M226.42,685.25s4.1,3.34,7,3.34,14.76-.8,19.17-2.27,7.29-2.3,7.29-2.3,3.22,1.26,2.88,4.57a10.21,10.21,0,0,1-2.9,5.7s-19.65,5.38-26.27,4.89-15.94-4.89-7.15-13.93"/><path class="cls-33" d="M226.42,685.25s4.1,3.34,7,3.34,14.76-.8,19.17-2.27,7.29-2.3,7.29-2.3,3.22,1.26,2.88,4.57a10.21,10.21,0,0,1-2.9,5.7s-19.65,5.38-26.27,4.89S217.63,694.29,226.42,685.25Z"/><path class="cls-34" d="M179.79,692s-1.22,12.08-1.22,16"/><path class="cls-6" d="M179.79,692s-1.22,12.08-1.22,16"/></g></svg>