<svg id="Layer_1" data-name="Layer 1" xmlns="http://www.w3.org/2000/svg" xmlns:xlink="http://www.w3.org/1999/xlink" viewBox="0 0 612 792"><defs><style>.cls-1,.cls-14,.cls-21,.cls-23,.cls-5,.cls-6{fill:none;}.cls-2{clip-path:url(#clip-path);}.cls-3{fill:url(#linear-gradient);}.cls-4{clip-path:url(#clip-path-2);}.cls-5,.cls-6{stroke:#000;}.cls-14,.cls-23,.cls-5{stroke-width:0.5px;}.cls-6{stroke-width:0.25px;}.cls-7{fill:#60a89e;}.cls-8{clip-path:url(#clip-path-3);}.cls-9{fill:url(#linear-gradient-2);}.cls-10{clip-path:url(#clip-path-4);}.cls-11{clip-path:url(#clip-path-5);}.cls-12{fill:url(#linear-gradient-3);}.cls-13{clip-path:url(#clip-path-6);}.cls-14{stroke:#fff;}.cls-15{clip-path:url(#clip-path-7);}.cls-16{fill:url(#linear-gradient-4);}.cls-17{clip-path:url(#clip-path-8);}.cls-18{clip-path:url(#clip-path-9);}.cls-19{fill:#fff5e4;}.cls-20{fill:#ffe8d3;}.cls-21,.cls-23{stroke:#231f20;}.cls-21{stroke-width:0.75px;}.cls-22{fill:#fff;}.cls-24{fill:#dd9828;}</style><clipPath id="clip-path"><path id="SVGID" class="cls-1" d="M48.14,299.61c0-4,2.53-9,2.53-9,1.36-5.79,4.51,2.51,4.51,6.53s0,14.06-3.56,17.58a1.55,1.55,0,0,1-1,.54c-2.53,0-2.46-12-2.46-15.61M30.45,225.79a43.66,43.66,0,0,1,12.13-2c4.55,1-9.53,9-16.19,10.79a6.31,6.31,0,0,1-1.56.23c-4.24,0,.1-7.19,5.62-9m61.46,35.66c-5.56-6.28-8.77-16.08-10.63-18.08S65.6,224.53,69.94,221c0,0,4.51-3.51,8.31,0s8.94,13.06,11.38,14.57S98,245.12,97,250.65c-.81,4.39,0,12.61-2.46,12.61-.62,0-1.47-.53-2.6-1.81m-4.3-84.21c2.56-1.84,7.59,0,7.59,0s.37.34.37,2.6-8.58,3.42-12.48,3.42,2-4.18,4.52-6m26.94,18.83c-6-6.27-9.82-12.81-5.18-18.49s10.62-2,10.62-2c9.11,3.51,10.12,21.22,10.12,29.13,0,2-.64,2.87-1.69,2.87-3,0-9.42-6.84-13.87-11.5M17.66,166.68C6.28,177.42-2.79,192.52-5.11,203.19s6.32,3.34,10.75-2.51S24,186.87,35.37,185.61s1.26,6.28-5.69,8.37S.59,208.21-2.79,213.86-8,239-8,247.76s5.2,5.15,9.58,1.88,9.12-9.41,11.64-10.67,5.7,1.26,3.16,3.77A64.54,64.54,0,0,0,5.64,255.29c-5,7.54-2.79,15.7,0,12.56S17,255.92,20.82,252.91s8.23,3.85,8.86,6.15-.63,7.53-1.27,12.55S17,276,9.44,278.52s-5.17,11.3-5.17,17,1.37,1.26,3.9-.63,8.22-1.25,8.22,2.51S8.17,308,5.64,316.81s10.75,32,14.55,32,8.86-5,8.86-5c0,3.13,5.05-1.26,12.64-4.11s5.06-11.8,8.49-13.47-.26,6.68,1,10.67,8.22.63,15.18-4.81,19.93-20.93,24-27.83,2.53-21.34,2.53-25.74,6.33-2.51,5.69,1.26,0,8.16,3.81,11.29,9.48-6.9,22.12-12.55,7.65-11.3,10.76-18.83-3.11-28-3.11-34.53,0-11.3,4.37-8.79,5.7,19.46,6.32,22,7.59,3.14,12.65-13.81-6.32-31.38-17.7-50.22-20.23-19.46-29.73-15.06-34.78,20.08-34.78,20.08C74.39,158.62,65.1,142.92,55,141a8.83,8.83,0,0,0-1.63-.15c-10.13,0-24.9,15.62-35.69,25.79"/></clipPath><linearGradient id="linear-gradient" x1="7.06" y1="791.97" x2="9.91" y2="791.97" gradientTransform="matrix(0, -73.23, -73.23, 0, 58075, 866.23)" gradientUnits="userSpaceOnUse"><stop offset="0" stop-color="#61a89e"/><stop offset="0.19" stop-color="#61a89e"/><stop offset="1" stop-color="#427d72"/></linearGradient><clipPath id="clip-path-2"><rect id="SVGID-2" data-name="SVGID" class="cls-1" x="-8.71" y="140.18" width="166.19" height="209.37"/></clipPath><clipPath id="clip-path-3"><path id="SVGID-3" data-name="SVGID" class="cls-1" d="M101.53,90c2.42-4.93,13.85-3.77,15.86-.2,8.87,4.33-19.79,7.52-15.86.2m46.09-3.62c1.66-3.82,10-7.26,12.13-3.09,2.68,2.78-12.79,9.94-12.13,3.09M93.31,76.07c-5.49-2.3-11.65-3.92-13-5.48s-2.53-4.91.39-4.08c0,0,10.85,2.55,13.14,5.56,3.13,3.81,4,6-.49,4M19.69,14.17c-6,1.45-15.58,6.54-15.55,9.17s-1.58,20-1,22.73c-9.3-12.76-2.18,9-.44,14.25C4.34,66.59,12.9,73.08,26.24,75.73c0,0-23.46,8.87-21.69,15.38S7.07,103.33,18,106.68c0,0,5-3.54,8.11-3.43s-.15,5-.38,5.85,14.42,3.27,14.9,2.19C43,98.9,56.23,91.42,68.54,88.41,73,86.63,81,84.62,77.26,88.27c-7.55,6.44-25.67,7.46-20.54,20.94,3.85,7.63-.34,8.92,10.11,8.76,9-1.8,31.65,11.89,30.82-2.74C95.93,112.91,91.17,107,94,104s8.62,2.35,8.55,5.31c4.48,10.48,37.16,26.65,47.4,29.15,24.74,0-12.16-15.46,5.57-21.67,7.4-1.3,14.77-1.29,13.06,3.71-1.18,5.27-5.82,12-.87,21.21,3.59,3.88,32.55,21.08,36.06,13.88,2.61-12.82,11.09,28.16,20.88,29.65,17,8.14,20.19,7.31,15.67-7.77,15.06,4.35,1-21.54-3.3-26.81-4.07-3.24-22.62-17.57-24.3-18.88s-17.6-16.54-18.75-19-5.55-9.94-10.62-10.6c-9.88-2.26-5.85-4.83-1.46-4.07,7.6,2.06,2.6-13-1.77-14.83-4.26-2.56-7.62-6.44-12.49-4.6s-9.23,2.3-6.2,0c3.44-3.8,21.22-1.21,14-9.34-7.58-4.8-25.81-13.17-36.12-10.52-6.06,2.45-24.61,9.2-27.74,10.92s-6.27,2.57-4.06-1.42,11.31-7.23,14.26-7.44c5.85-1.24,33.3-7.94,17.24-16.78-7.6-3.47-19.9-10.62-22.73-9.08s-20,15.26-22.91,21.18-5,6.34-9.85,4C68.68,54.19,77,44.13,88.72,37.75c10.42-5.09,19.41-5.28,8.82-11.38-1.74-1.28-14.54-5.15-16-5.57s-4-3.66-10.78,2.05S56.58,34.32,55.67,37.46s-1.16,10.22.87,15.93C60.64,66.23,53,68,50.11,56.68c-4.52-12-11.92-31.91,3.22-38.17-3.54-8.17-25.75-5.07-33.64-4.34"/></clipPath><linearGradient id="linear-gradient-2" x1="-1.02" y1="799.96" x2="1.84" y2="799.96" gradientTransform="matrix(0, 96.97, 96.97, 0, -77449.06, 64.19)" xlink:href="#linear-gradient"/><clipPath id="clip-path-4"><rect id="SVGID-4" data-name="SVGID" class="cls-1" x="-2.07" y="12.49" width="250.14" height="178.5"/></clipPath><clipPath id="clip-path-5"><path id="SVGID-5" data-name="SVGID" class="cls-1" d="M75.39,692.89c1-3.55,12.82-12.47,16.69-14.19l5.67-1.48s7.45.31,8.35,2.08.24,3.93-3.28,5.61-9.24,4-14.31,5.91c-3.55,1.35-9,3.55-11.65,3.55-1.14,0-1.76-.41-1.47-1.48m44.12-27.25c-1.84-.25-3.73-3.22-4.85-3.22s-1.41-2.35,4.85.31c0,0,1.7,2.92.2,2.92h-.2m-39.65-4.79a11.64,11.64,0,0,0,5.07-1.67s2.38,0,1.49,1.67-4.77,2.71-7.88,2.71-1.07-2.71,1.32-2.71M16.35,596.79c3.58-2.32,14.36-3.84,14.36-3.84,10.09-3.26-7.3,8.57-16.15,9.16-.65,0-1.22.07-1.71.07-6.1,0,.19-3.25,3.5-5.39m27.13-7.54c0-1.63,4.77-2.22,4.77-2.22,2.94-.61,2.69,2.22,2.34,3.55-.11.43-.88.61-1.87.61-2.11,0-5.24-.83-5.24-1.94m35.68-12c-.1-1.23,2.49-2.77,2.49-2.77,3-2.82,7.15-3.18,10.8-3.18s9.08-3.77,12.15.36-.89,4.52-3.07,4.52-10.84,1.07-16.6,1.07a24.21,24.21,0,0,0-5.51.54c-.21,0-.22-.14-.26-.54m-9.07-12c-11.18,1.1-13.79,11.45-13.79,11.45a50.56,50.56,0,0,0-24.15-11.82c-8.5-1.48-26.83,2.66-30.11,4.43s-4.18,7.1-3,7.64,9-4.09,11.93-4.68.29,1.48-1.8,2.66A199.89,199.89,0,0,0-7.5,586.44c-3.88,3.25-10.43,12.72-12.23,15.38s-2.38,6.21-2.68,10.84.9,10.15,2.68,10.45,4.78-4.14,8.2-8,7-7.68,12.43-8.62,2.63,2.41,1.44,4.19-10.73,10.64-15.5,14.49-5.07,7.09-4.58,8.57,1.59,6.21,4.28,9.46,6,2.08,10.43-2.36,23.85-12.42,30.71-13.6,11,3.84,6.76,5.12-7.45,2.47-16.15,7S-.94,651.79-3.32,657.7,2.14,671.6,3.53,673s9.24,7.15,11,4.78,10.14-12.12,14.61-14.49,3.58.59,2.09,1.48-6.26,10.06-9,16.56,6.86,9.76,11,13.31,7.75-3,9-5,2-5.32,5.26-10.64,14-11.24,17.84-12.42,1.54,2.36,0,4.73-16.65,15.37-20.82,24.84.59,15.08,2.68,16.55,12.23,7.39,14.41,8.88,2.29-3.55,2.88-7.89,6.86-11.33,8-11.33-.59,6.8-3.87,13-1.79,7.68.3,8a93.19,93.19,0,0,1,12.82,3c4.77,1.52,18.48,8.28,27.72,12.41s16.4-6.5,23-10.05,15.48-7,17.44-8.72,1.2-3.4-.72-4.41-4.19-1.23-11.35-3.87-6.86-4.14-6.56-6a9.62,9.62,0,0,1,3-5.25c1.66-1.62,8.69,1.63,10.26,2.22s8.37,6.11,11.18,6.73,4.77-9,4.77-14.79-2-7.61-3.73-8.8-12.82-8.45-17.44-11.82-10.73-4.24-12.23-4.64-1.19-1.87-.14-2.61,1.49-.22,5.21-1,11.93,2.59,16,4.44,10.41,2.59,10.41,2.59a52.09,52.09,0,0,1-.72-14.42c.75-7.76-3.11-20.33-2.91-24.32s-4.62-6.21-4.62-6.21l-2.68-2.07c-2.68-2.07-5.82-9.17-8.05-13.6s-10.14-7.84-10.14-7.84,6.71-.44,9.84-.59,4.47,7,5.81,11.83,6.56,4,6.56,4c3.58-14.34-2.58-30-3.43-34.45-.59-3.1-2.38-4-2.38-4l.07-1.48c-4.47-12.2-16.77-13.67-24.72-15-2.9-.49-9-.69-16.18-.69-12.46,0-28,.6-35.13,1.31"/></clipPath><linearGradient id="linear-gradient-3" x1="1.85" y1="791.9" x2="4.71" y2="791.9" gradientTransform="matrix(0, -61.97, -61.97, 0, 49146.14, 854.97)" xlink:href="#linear-gradient"/><clipPath id="clip-path-6"><rect id="SVGID-6" data-name="SVGID" class="cls-1" x="-23.17" y="560.7" width="184.54" height="179.68"/></clipPath><clipPath id="clip-path-7"><path id="SVGID-7" data-name="SVGID" class="cls-1" d="M18.31,456.69c-3.47-.15-5.44-1.84-4.94-3.8,0,0,1.76-2.34,3.53-1.76s6.76,2.17,6.17,3.72c-.52,1.36-1.13,1.86-3.64,1.86-.34,0-.71,0-1.12,0m54.33-13.55c-4.56-3-5.73-9.25-5.53-11.88s8.28-.17,11.57,0c5.88.29,9.27,3.21,10,5.55s-2.35,5-5,8.23a4,4,0,0,1-3.24,1.63c-2.21,0-4.85-1.58-7.8-3.53m33.41-24c0-1.34,5.58-2.18,5.58-2.18,4.12-.6,1.77,3.51.1,3.8a6,6,0,0,1-1,.08c-1.89,0-4.66-.6-4.66-1.7m-10-1.55c-4.71-2.09-13.83-7.93-16.18-7.93s-7.06-3.48-4.71-5,10.3-.29,14.71,1.17a57.89,57.89,0,0,1,13,6.44c2.3,1.75,4.11,2.33.88,5.3a6.51,6.51,0,0,1-3.58.94,10,10,0,0,1-4.07-.94M75.74,358.1c2.2,0,5.59.07,5.59.07s.45,3.8-1.47,3.8-6.32-3.87-4.12-3.87m56.78,1.24c-1.18-1-4.71-.87-5.59-2s1.77-1.47,1.77-1.47c3.23-.6,6.76,1.76,9.7,4.1s2.07,4.09,0,4.09-4.7-3.7-5.88-4.68M54.26,338.59c-2.35,2.69-2,5.55.3,6.14a126,126,0,0,1,15,3.79c8,2.64,5.86,4.6,3.79,6.72s-6.27-4.44-15.88-7.1-13.68,2.66-18.2,5-6,10.85-6,13.95,10.13,8.93,11.89,9.52A36.35,36.35,0,0,1,53.38,381c2.35,1.81-1.1,4.53-3.24,3.17s-18.24-6.72-28.39-4.68S-4,396.86-8.89,409.91s12,12.28,13.72,12,10.89-2.63,13.83-1.75,7.65,3.8,13,6.14,3.23,5.26,2.06,6.72-5.59-.83-11.48-2.05S5.81,430.67.13,432.72s-12,10.81-12,13.41,4.69,0,7.93,0,7.65,0,10.59,3.1-.29,2.44-7.94,1.22-19.13,4.4-24.13,11.21,1.86,4.38,3.83,3.51S-5.76,464-4,464s5-2.05,5.88.58-.29,3.51-3.23,4.14a73.92,73.92,0,0,0-18.59,6.68c-8,4.24-6.72,10.23-4.9,19.58s12.91,3.81,15,3.51,7.35-4.09,10-4.38S6,488,7.78,498.2,6,505.51,1.3,506.68s-11.42,14.91-14.41,23.68,1.19,16.95,4.41,23.38,11.47,4.68,14.51,4.1,15.12-15.5,16.38-19.59,0-19.29-.59-25.68,3.24-1.8,4.42.24,2.94,18.42,4.12,26.32,6.32,2,9.41.88,7.36-3.08,8.24-6,.29-22.69-.88-27.36-11.68-14.62-11.19-17.25,9.13,4.87,13.25,7.89S60.44,522.17,61.61,528s6.48,6.14,8.83,4.68,6.77-6.43,9.71-9.36,0-14.42-1.47-19.88-12.8-18.71-15.59-21.92-14.37-8.76-17.66-12,3.29-3.51,10.3-2.34S78.39,484.56,81,487.68s7.5,12.71,9.71,13.93,9.12-4.29,14.37-10.72.64-14.62.34-19.29-10.88-10.82-14-12-3-4.76.52-10.52,4.7-4.39,9.71-4.09,10,12.86,11.47,15.49,1.82,7.6,3.53,6.72,8.83-8.77,11.48-11.69,5.29-10.82,6.42-13.45-5.54-6.27-9.07-8.67-11.47-10.33-8.83-10.91,9.71,7,17.9,11.1,9.46-.58,11.52-4.09,6.18-13.15,9.42-22.21-5.89-18.78-8.53-24-4.12-11.4-2.06-11.4,6.18,3.22,9.41,9.11,4.42,10.19,8.24,3.46,5.3-17.41,2.35-28.06-21.18-20.53-30.3-22.51-39.13,15.85-39.13,15.85c-.29-6.41-2.23-9.86-7.94-13.37-6.92-4.09-19.18-4.81-22.07-4.81s-8.83,4.31-11.18,7"/></clipPath><linearGradient id="linear-gradient-4" x1="2.38" y1="794.85" x2="5.23" y2="794.85" gradientTransform="matrix(104.78, 0, 0, -104.78, -328.75, 83728)" gradientUnits="userSpaceOnUse"><stop offset="0" stop-color="#61a89e"/><stop offset="0.19" stop-color="#61a89e"/><stop offset="0.24" stop-color="#5da399"/><stop offset="0.5" stop-color="#4e8e83"/><stop offset="0.76" stop-color="#458176"/><stop offset="1" stop-color="#427d72"/></linearGradient><clipPath id="clip-path-8"><rect id="SVGID-8" data-name="SVGID" class="cls-1" x="-27.97" y="330.87" width="195.13" height="228.35"/></clipPath><clipPath id="clip-path-9"><rect class="cls-1" x="-1.36" y="261.7" width="185.32" height="171.68"/></clipPath></defs><g class="cls-2"><rect class="cls-3" x="-7.99" y="140.89" width="168.59" height="207.94"/></g><g class="cls-4"><path class="cls-5" d="M130.11,204.69c0,7.91-9.57-2.34-15.56-8.62s-9.82-12.81-5.18-18.49,10.62-2,10.62-2C129.1,179.08,130.11,196.79,130.11,204.69ZM97,250.65c-1,5.52.51,17.07-5.06,10.79s-8.77-16.07-10.62-18.08S65.6,224.53,69.94,221c0,0,4.51-3.52,8.31,0s8.94,13,11.38,14.56S98,245.12,97,250.65Zm-1.41-70.81c0,2.27-8.57,3.42-12.47,3.42s2-4.18,4.52-6,7.59,0,7.59,0S95.56,177.58,95.56,179.84ZM55.18,297.1c0,4,0,14.06-3.56,17.58s-3.48-11.05-3.48-15.07,2.53-9,2.53-9C52,284.78,55.18,293.08,55.18,297.1ZM26.39,234.57c-6.66,1.75-2-6.77,4.06-8.78a43.66,43.66,0,0,1,12.13-2C47.13,224.78,33.05,232.82,26.39,234.57Zm111.44-60.26c-11.39-18.83-20.23-19.46-29.73-15.07s-34.78,20.09-34.78,20.09C74.39,158.62,65.09,142.92,55,141S29.05,156,17.66,166.68-2.79,192.52-5.11,203.19s6.33,3.35,10.75-2.51S24,186.87,35.37,185.61s1.26,6.28-5.69,8.37S.59,208.21-2.79,213.86-8,239-8,247.76s5.2,5.15,9.58,1.88S10.7,240.23,13.23,239s5.7,1.26,3.16,3.77A63.84,63.84,0,0,0,5.64,255.29c-5,7.53-2.79,15.7,0,12.56S17,255.92,20.82,252.91s8.23,3.85,8.86,6.15-.63,7.53-1.27,12.56S17,276,9.44,278.52s-5.17,11.3-5.17,17,1.37,1.26,3.9-.63,8.22-1.25,8.22,2.51S8.17,308,5.64,316.82s10.75,32,14.55,32,8.86-5,8.86-5c0,3.13,5.05-1.26,12.64-4.11s5.06-11.8,8.49-13.47-.26,6.68,1,10.67,8.22.63,15.18-4.81,19.93-20.93,24-27.83,2.53-21.35,2.53-25.74,6.33-2.51,5.69,1.26,0,8.16,3.81,11.3,9.48-6.91,22.12-12.56,7.65-11.3,10.76-18.83-3.11-28-3.11-34.53,0-11.3,4.37-8.79,5.7,19.46,6.33,22,7.58,3.14,12.64-13.81S149.21,193.14,137.83,174.31Z"/><path class="cls-6" d="M73,184.54S59.9,208.17,48.83,245.87s-11.56,38.71-11.56,38.71"/><path class="cls-7" d="M71.9,176.88l-.15,5,5.7-3.22s13.06-30.47,20.77-34.06c0,0-1.42-3.71-3.67-2.84S85,150.13,81.08,157.56s-9.18,19.32-9.18,19.32"/><path class="cls-5" d="M71.9,176.88l-.15,5,5.7-3.22s13.06-30.47,20.77-34.06c0,0-1.42-3.71-3.67-2.84S85,150.13,81.08,157.56,71.9,176.88,71.9,176.88Z"/></g><g class="cls-8"><rect class="cls-9" x="2.74" y="-42.65" width="240.29" height="289.87" transform="translate(-9.3 192.21) rotate(-74)"/></g><g class="cls-10"><path class="cls-5" d="M152.83,88.85c-10.49,2-2.64-7.45,1.72-7.35C162.84,80.73,160.64,87.22,152.83,88.85Zm-33.91,2.9c0,1.83-4.52,2-11,2.36-17.45-.59,2.81-13.54,9.47-4.36A1.85,1.85,0,0,1,118.92,91.75ZM93.3,76.07c-5.48-2.3-11.64-3.92-13-5.48s-2.53-4.91.39-4.08c0,0,10.85,2.55,13.14,5.57S98.79,78.37,93.3,76.07Zm154,99.72c.84-2.9-6.23-21.89-10.29-25.13-14.86-11.66-32.2-24-43.05-37.84-1.14-2.42-5.55-9.94-10.63-10.6-9.88-2.27-5.84-4.82-1.45-4.07,7.6,2.06,2.6-13-1.77-14.83-4.26-2.56-7.62-6.44-12.49-4.6s-9.23,2.3-6.2,0c3.44-3.8,21.22-1.21,14-9.34-7.57-4.8-25.8-13.17-36.1-10.52-6.07,2.45-24.61,9.2-27.74,10.92s-6.28,2.57-4.07-1.42c7.75-9.75,26-7.26,34.44-15.29,1.57-2.68,4.66-5.47-2.94-8.93s-19.9-10.62-22.73-9.07-20,15.25-22.91,21.18c-3.14,11.47-19.22.87-17.94-5.36-.2-8.11,23.53-17.19,27-19.75-1.26-5.75-16.56-8.65-21-10.37-1.5-.43-4-3.66-10.78,2.05C56.91,34.18,51.76,37,56.54,53.38c2,5.71,1,11.78-1.16,11.17-5.48-2.4-7.67-17-10.19-21.71-1.4-9.49-2.39-20,8.14-24.33-6.11-10.25-44-5.94-49.19,4.83,0,2.62-1.58,20-1,22.73-9.29-12.75-2.19,9-.44,14.25,1.69,6.27,10.26,12.76,23.6,15.41,0,0-23.46,8.87-21.71,15.39S7.07,103.33,18,106.68c0,0,5-3.54,8.1-3.44s-.14,5-.37,5.86,14.41,3.27,14.9,2.19c2.4-12.4,15.65-19.87,28-22.88C73,86.63,81,84.62,77.26,88.27c-7.55,6.44-25.67,7.47-20.54,20.94,3.85,7.63-.34,8.92,10.11,8.75,13.59-.94,30.88,11.69,30.82-2.73C95.93,112.91,91.17,107,94,104s8.63,2.36,8.56,5.31c4.48,10.47,37.15,26.65,47.4,29.15,4.38-.56,13.49-.19,6.86-6.41-19.39-17.61,14.16-20.1,11.77-11.55-1.18,5.27-5.82,12-.87,21.21,3.58,3.88,32.55,21.08,36.06,13.88,2.6-12.82,11.09,28.16,20.88,29.65,17.06,8.14,20.19,7.31,15.67-7.77C240.29,177.46,246.44,178.68,247.28,175.79Z"/></g><g class="cls-11"><rect class="cls-12" x="-22.7" y="563.38" width="183.36" height="179.49"/></g><g class="cls-13"><path class="cls-5" d="M119.51,665.64c-1.83-.25-3.73-3.22-4.85-3.22s-1.41-2.35,4.85.31C119.51,662.73,121.35,665.89,119.51,665.64Zm-16.69,19.27c-3.53,1.67-9.24,4-14.31,5.91s-14.08,5.62-13.12,2.07,12.82-12.47,16.69-14.19l5.67-1.48s7.45.31,8.35,2.07S106.35,683.23,102.82,684.91Zm-1.29-108.74c-2.19,0-10.84,1.06-16.6,1.06s-5.67,1.23-5.77,0,2.49-2.77,2.49-2.77c3-2.8,7.15-3.17,10.8-3.17s9.08-3.77,12.15.37S103.71,576.17,101.53,576.17ZM79.86,660.85a11.58,11.58,0,0,0,5.07-1.67s2.38,0,1.49,1.67-4.77,2.71-7.88,2.71S77.47,660.85,79.86,660.85ZM50.59,590.58c-.35,1.33-7.11.3-7.11-1.33S48.26,587,48.26,587C51.19,586.42,50.94,589.25,50.59,590.58Zm-36,11.53c-8.84.59-1.79-3,1.79-5.32S30.71,593,30.71,593C40.8,589.69,23.41,601.52,14.56,602.11Zm144.21,70.67a51.54,51.54,0,0,1-.72-14.41c.75-7.76-3.11-20.33-2.91-24.32s-4.62-6.21-4.62-6.21l-2.68-2.07c-2.68-2.07-5.82-9.17-8.05-13.6s-10.14-7.84-10.14-7.84,6.71-.44,9.84-.59,4.47,7,5.81,11.83,6.56,4,6.56,4c3.58-14.34-2.58-30-3.43-34.45-.59-3.1-2.38-4-2.38-4l.07-1.48c-4.47-12.2-16.77-13.67-24.72-15s-40.12-.49-51.31.61S56.3,576.68,56.3,576.68a50.56,50.56,0,0,0-24.15-11.82c-8.49-1.48-26.83,2.66-30.11,4.43s-4.17,7.1-3,7.64,9-4.09,11.92-4.68.3,1.48-1.78,2.66A198.2,198.2,0,0,0-7.5,586.44c-3.88,3.25-10.44,12.72-12.22,15.38s-2.39,6.21-2.69,10.84.9,10.15,2.69,10.45,4.77-4.14,8.2-8,7-7.68,12.42-8.62,2.63,2.41,1.44,4.19-10.73,10.64-15.5,14.49-5.07,7.09-4.58,8.57,1.59,6.21,4.28,9.47,6,2.07,10.43-2.37,23.85-12.42,30.71-13.6,11,3.84,6.76,5.12-7.45,2.47-16.15,7S-.94,651.79-3.32,657.7,2.14,671.6,3.53,673s9.24,7.15,11,4.78,10.14-12.12,14.61-14.49,3.58.59,2.09,1.48-6.26,10.05-9,16.56,6.86,9.76,11,13.31,7.75-3,9-5,2-5.32,5.26-10.65,14-11.23,17.84-12.41,1.54,2.36,0,4.73-16.65,15.37-20.82,24.84.59,15.08,2.68,16.55,12.23,7.4,14.41,8.87,2.29-3.54,2.88-7.88,6.86-11.34,8-11.34-.59,6.81-3.87,13-1.79,7.68.3,8a93.19,93.19,0,0,1,12.82,3c4.77,1.52,18.48,8.28,27.72,12.42s16.4-6.51,23-10.06,15.48-7,17.44-8.72,1.2-3.4-.72-4.41-4.19-1.24-11.35-3.87-6.86-4.14-6.56-6a9.62,9.62,0,0,1,3-5.25c1.66-1.62,8.69,1.63,10.26,2.22s8.37,6.11,11.18,6.73,4.77-9,4.77-14.79-2-7.61-3.73-8.79-12.82-8.46-17.44-11.83-10.73-4.24-12.23-4.64-1.19-1.87-.14-2.61,1.49-.22,5.21-1,11.93,2.59,16,4.44S158.77,672.78,158.77,672.78Z"/><path class="cls-6" d="M58.57,579.76s15.73,14.18,33,51.5,30,72.16,31.47,91"/><path class="cls-7" d="M58.25,570.66s-4-8.53-8.1-9.1-8.68.52-10.13,4.38l4,2.26s2-3.05,3-1.52,2,6,2,6l7.48,5.1,2.28-5.1Z"/><path class="cls-14" d="M58.25,570.66s-4-8.53-8.1-9.1-8.68.52-10.13,4.38l4,2.26s2-3.05,3-1.52,2,6,2,6l7.48,5.1,2.28-5.1Z"/></g><g class="cls-15"><rect class="cls-16" x="-82.21" y="294.91" width="301.78" height="301.93" transform="translate(-294.24 177.89) rotate(-44.8)"/></g><g class="cls-17"><path class="cls-5" d="M138.4,364c-2.07,0-4.7-3.7-5.88-4.68s-4.71-.87-5.59-2,1.77-1.46,1.77-1.46c3.23-.61,6.76,1.75,9.7,4.09S140.48,364,138.4,364Zm-26.68,56.71c-1.67.29-5.67-.29-5.67-1.62s5.58-2.18,5.58-2.18C115.75,416.33,113.4,420.44,111.72,420.73Zm-8-3.16s-2.94,2.09-7.65,0-13.83-7.95-16.18-7.95-7.06-3.47-4.71-5,10.3-.29,14.71,1.17a57.9,57.9,0,0,1,13,6.43C105.11,414,106.93,414.59,103.69,417.57ZM79.86,362c-1.92,0-6.32-3.87-4.12-3.87s5.59.07,5.59.07S81.77,362,79.86,362Zm-1.18,69.29c5.89.29,9.27,3.21,10,5.55s-2.35,5-5,8.23-6.47,1.13-11-1.9-5.73-9.25-5.53-11.88S75.39,431.09,78.68,431.26ZM23.07,454.85c-.59,1.55-1.3,2-4.76,1.84s-5.43-1.84-4.95-3.8c0,0,1.77-2.34,3.54-1.76S23.66,453.3,23.07,454.85Zm141.81-98.43c-2.94-10.65-21.18-20.53-30.3-22.51s-39.13,15.85-39.13,15.85c-.29-6.41-2.23-9.86-7.94-13.36-6.92-4.1-19.18-4.82-22.07-4.82s-8.83,4.31-11.18,7-2,5.55.3,6.14a124.3,124.3,0,0,1,15,3.8c8,2.63,5.85,4.59,3.79,6.71s-6.27-4.44-15.88-7.1-13.68,2.66-18.2,5-6,10.85-6,13.95,10.12,8.94,11.89,9.52A36.35,36.35,0,0,1,53.38,381c2.35,1.81-1.1,4.53-3.24,3.17s-18.24-6.72-28.39-4.68S-4,396.86-8.9,409.91s12,12.28,13.73,12,10.89-2.63,13.83-1.75,7.65,3.8,13,6.13,3.23,5.27,2.06,6.73-5.59-.83-11.48-2.05S5.81,430.67.13,432.72s-12,10.81-12,13.41,4.69,0,7.93,0,7.65,0,10.59,3.1-.3,2.44-7.94,1.22-19.13,4.4-24.13,11.21,1.86,4.38,3.82,3.51S-5.76,464-4,464s5-2.05,5.88.58-.29,3.51-3.23,4.14a73.92,73.92,0,0,0-18.59,6.68c-8,4.24-6.72,10.23-4.9,19.58s12.91,3.8,14.95,3.51,7.36-4.09,10-4.38S6,488,7.78,498.2,6,505.51,1.3,506.68s-11.42,14.91-14.41,23.68,1.19,16.95,4.41,23.38,11.48,4.68,14.51,4.09,15.12-15.49,16.38-19.58,0-19.29-.59-25.68,3.24-1.8,4.42.25,2.94,18.41,4.12,26.31,6.32,2,9.41.87,7.36-3.07,8.24-6,.29-22.7-.88-27.37-11.67-14.62-11.19-17.25,9.13,4.87,13.24,7.89S60.44,522.17,61.62,528s6.47,6.14,8.82,4.68,6.77-6.44,9.71-9.36,0-14.42-1.47-19.88-12.8-18.71-15.59-21.92-14.37-8.76-17.66-12,3.29-3.51,10.3-2.34S78.38,484.56,81,487.68s7.49,12.71,9.7,13.93,9.12-4.29,14.37-10.72.64-14.61.34-19.29-10.88-10.82-14-12-3-4.76.52-10.52,4.71-4.39,9.71-4.09,10,12.86,11.47,15.49,1.82,7.6,3.53,6.72,8.83-8.77,11.48-11.69,5.29-10.82,6.42-13.45-5.54-6.27-9.07-8.67-11.47-10.33-8.83-10.91,9.71,7,17.9,11.11,9.46-.59,11.53-4.1,6.17-13.15,9.41-22.22-5.88-18.77-8.53-24-4.12-11.4-2.06-11.4,6.18,3.22,9.41,9.11,4.42,10.19,8.24,3.46S167.83,367.07,164.88,356.42Z"/><path class="cls-7" d="M60.72,404.12s-24,38.55-36.13,80"/><path class="cls-6" d="M60.72,404.12s-24,38.55-36.13,80"/></g><g class="cls-18"><path class="cls-19" d="M161.08,369.05s-7.79.47-7.41,4.1c.33,3,9.16,3.59,13.06,3.69s11.45-1,11.45-4.07-9.33-4.58-17.1-3.72"/><path class="cls-19" d="M168.42,372.15s1.28-13.39,2-20.68c.21-2.25-.92-5.68,6-10S184,321.84,184,321.84a26,26,0,0,0-12.15-3.46,48.68,48.68,0,0,0-12.89,2s.25,11.14,2.09,15.87,5.51,6.32,5.68,9.62c.19,3.67-.82,9.2-1.25,14.9s-.86,10.28-.86,10.28"/><path class="cls-20" d="M-.76,411s31.39,20.86,43,21.29S85.55,422.93,91.13,411s9-18.08,5.15-48.94c0,0,26.24,4.68,40.33,3.4s32.89-5.1,35.18-6.81,4.6-10.21,2.3-10.64-12.67,0-12.67,0,3.08-3.4,2.65-5.53-6,3.83-8,3.83-38.54-9.79-45.19-12.77-20.08-15-21.46-15.74c0,0,1.11-13.2-1.38-17,0,0,6.82-2.55,9-4.68s9.52-6.81,3.94-18.3-12.88-14.47-16.31-14.9-8.44,0-10.87,4.68l-2.43,4.68s-13.3-5.95-20.16-4.25S31.06,279.5,31.06,279.5s-4.29-5-8.58-5S9.73,282.7,7.93,289.62c-1.67,6.44-1.76,13.22-.9,15S19.9,312,23.77,311.84c0,0,1.54,13.11,9.8,17.15a26.54,26.54,0,0,1-15.81,4c-9-.71-16.81-1.13-16.81-1.13"/><path class="cls-21" d="M-.76,411s31.39,20.86,43,21.29S85.55,422.93,91.13,411s9-18.08,5.15-48.94c0,0,26.24,4.68,40.33,3.4s32.89-5.1,35.18-6.81,4.6-10.21,2.3-10.64-12.67,0-12.67,0,3.08-3.4,2.65-5.53-6,3.83-8,3.83-38.54-9.79-45.19-12.77-20.08-15-21.46-15.74c0,0,1.11-13.2-1.38-17,0,0,6.82-2.55,9-4.68s9.52-6.81,3.94-18.3-12.88-14.47-16.31-14.9-8.44,0-10.87,4.68l-2.43,4.68s-13.3-5.95-20.16-4.25S31.06,279.5,31.06,279.5s-4.29-5-8.58-5S9.73,282.7,7.93,289.62c-1.67,6.44-1.76,13.22-.9,15S19.9,312,23.77,311.84c0,0,1.54,13.11,9.8,17.15a26.54,26.54,0,0,1-15.81,4c-9-.71-16.81-1.13-16.81-1.13"/><path class="cls-19" d="M52.76,298c5.33-1.59,11.95.42,14.08,3s-2.13,14-7,16.49-10-.7-12.17-3.38S37.39,302.62,52.76,298"/><path class="cls-6" d="M52.76,298c5.33-1.59,11.95.42,14.08,3s-2.13,14-7,16.49-10-.7-12.17-3.38S37.39,302.62,52.76,298Z"/><path class="cls-19" d="M52.16,325.08s9.56.66,13-1.64"/><path class="cls-5" d="M52.16,325.08s9.56.66,13-1.64"/><path class="cls-19" d="M33.52,296.29s3.7-5.69,8.38-5"/><path class="cls-5" d="M33.52,296.29s3.7-5.69,8.38-5"/><path class="cls-19" d="M59,287.47s6.52-.43,9.32,2.41"/><path class="cls-5" d="M59,287.47s6.52-.43,9.32,2.41"/><path class="cls-22" d="M22.63,285.06s-4.9,11.09-4.69,15.31-7,.6-7-1.69S14.85,286,18.15,283s3.84-.34,4.48,2"/><path class="cls-6" d="M22.63,285.06s-4.9,11.09-4.69,15.31-7,.6-7-1.69S14.85,286,18.15,283,22,282.7,22.63,285.06Z"/><path class="cls-22" d="M76.16,275.82s6.93,7.58,9.36,12.55,7.67.31,8.52-2.17S90.82,273.56,88,271s-6.69-4.66-9.25-3.38-4.42,6.25-2.55,8.18"/><path class="cls-6" d="M76.16,275.82s6.93,7.58,9.36,12.55,7.67.31,8.52-2.17S90.82,273.56,88,271s-6.69-4.66-9.25-3.38S74.29,273.89,76.16,275.82Z"/><path class="cls-19" d="M33,329.12a41.15,41.15,0,0,0,17.37,4.41"/><path class="cls-5" d="M33,329.12a41.15,41.15,0,0,0,17.37,4.41"/><path class="cls-19" d="M87.75,320.68s-1.88,7.47-4.86,9.56"/><path class="cls-5" d="M87.75,320.68s-1.88,7.47-4.86,9.56"/><path class="cls-19" d="M22.68,390.86s.54,15.76,2.24,18.74"/><path class="cls-5" d="M22.68,390.86s.54,15.76,2.24,18.74"/><path class="cls-19" d="M34.24,365.85a21.12,21.12,0,0,0,7.84,2"/><path class="cls-23" d="M34.24,365.85a21.12,21.12,0,0,0,7.84,2"/><path class="cls-19" d="M95.45,349.76s1.47,8.31,1.47,11.69"/><path class="cls-5" d="M95.45,349.76s1.47,8.31,1.47,11.69"/><path class="cls-23" d="M160.59,322.11a81.9,81.9,0,0,0,11.22,1c5,0,10.72-.44,10.72-.44"/><path class="cls-24" d="M162.2,326s.87,15.49,8.42,15.21c8.11-.31,10-15.31,10-15.31s-11.87-2.15-18.46.1"/><path class="cls-23" d="M162.94,326.58s5.73.53,8.32.53,8.22-.27,8.22-.27"/><path class="cls-20" d="M1,352.71s17.59,7.09,22.74,8.65,8.94,2.84,8.94,2.84-11.08,14.47-10.65,24.68c0,0-17.59-11.91-21-13.19"/><path class="cls-21" d="M1,352.71s17.59,7.09,22.74,8.65,8.94,2.84,8.94,2.84-11.08,14.47-10.65,24.68c0,0-17.59-11.91-21-13.19"/></g></svg>