<svg id="Layer_1" data-name="Layer 1" xmlns="http://www.w3.org/2000/svg" xmlns:xlink="http://www.w3.org/1999/xlink" viewBox="0 0 272.4 316.57"><defs><style>.cls-1{fill:none;}.cls-2{clip-path:url(#clip-path);}.cls-3{fill:#fff;}.cls-4{fill:#dd9828;}</style><clipPath id="clip-path" transform="translate(-138 -200.21)"><rect class="cls-1" width="612" height="792"/></clipPath></defs><g class="cls-2"><path class="cls-3" d="M146.11,355.23s-1.78-69.77-2.75-77.47-5.36-59.35-5.36-63,7.37-18.12,9-10.87,5.7,44,6.59,57.31,4.17,57.39,3.65,64.57,1,21.74,1,21.74,14.57-1.36,14.57,1.36,3,3.68-2.53,6.37-23.38,3.6-24.2,0" transform="translate(-138 -200.21)"/><path class="cls-4" d="M150.32,355.23s-1.78-69.77-2.75-77.47-5.36-59.35-5.36-63,7.37-18.12,9-10.87,5.7,44,6.59,57.31,4.17,57.39,3.65,64.57,1,21.74,1,21.74,14.57-1.36,14.57,1.36,3,3.68-2.53,6.37-23.38,3.6-24.2,0" transform="translate(-138 -200.21)"/><path class="cls-3" d="M169.9,212.47s6.48-.16,7.15,2.71,3.1,31.49,3.1,40.78,3.15,58,5,64.33,3.5,14.5,5.73,11.33S198,310.33,198.48,275s-.37-68,.93-71.59,9.94-4.72,9.94-.32,5.65,99.54,5.21,118.8.95,45.53.95,45.53-3.33,3.57-6.16,1.81-4.17-19.93-4.62-25.82-.44-10.19-.44-10.19-5.81,12.91-13.4,12.45-15.63-12.23-16.07-20.84-3.58-45.76-3.58-54.82-1.36-35.79-1.36-39-.93-16.76,0-18.57" transform="translate(-138 -200.21)"/><path class="cls-4" d="M174.11,212.47s6.48-.16,7.15,2.71,3.1,31.49,3.1,40.78,3.15,58,5,64.33,3.5,14.5,5.73,11.33,7.15-21.29,7.59-56.63-.37-68,.93-71.59,9.94-4.72,9.94-.32,5.65,99.54,5.21,118.8.95,45.53.95,45.53-3.33,3.57-6.16,1.81-4.17-19.93-4.62-25.82-.44-10.19-.44-10.19-5.81,12.91-13.4,12.45S179.47,333.43,179,324.82s-3.58-45.76-3.58-54.82-1.36-35.79-1.36-39-.93-16.76,0-18.57" transform="translate(-138 -200.21)"/><path class="cls-3" d="M231.92,404.65s2.53,5.14,5.28,5.14,2.75-2.86,2.75-18.55-4-79.42-4-90.14V239.19C236,236,245.76,260,247.54,265s4.77,11.55,6.4,11.55,7.89-12,7.89-13.81.93,29.89.93,39.41.93,51.19.93,51.19.93,60,.93,72,.78,43.49,3.91,43,8-2.38,8-4.59-.89-29.38-1.34-39.8,2.09-54.08,1-63.42-.45-59.8-1.86-78.37-3.65-34.89-5-37.61-7.14-3-8.93-.15-3.47,11-6.2,2.87-9.72-20.38-13.37-26.27-8.42-3.72-10.94-.5-5.65,27.94-5.21,39.91S227,316.2,227,323.9s3,45.86,3,48.76,1.94,32,1.94,32" transform="translate(-138 -200.21)"/><path class="cls-4" d="M236.13,404.65s2.53,5.14,5.28,5.14,2.75-2.86,2.75-18.55-4-79.42-4-90.14V239.19C240.19,236,250,260,251.75,265s4.77,11.55,6.4,11.55,7.89-12,7.89-13.81.93,29.89.93,39.41.93,51.19.93,51.19.93,60,.93,72,.78,43.49,3.91,43,8-2.38,8-4.59-.89-29.38-1.34-39.8,2.09-54.08,1.05-63.42-.45-59.8-1.86-78.37-3.65-34.89-5-37.61-7.14-3-8.93-.15-3.47,11-6.2,2.87-9.72-20.38-13.37-26.27-8.42-3.72-10.94-.5-5.65,27.94-5.21,39.91,2.23,55.72,2.23,63.42,3,45.86,3,48.76,1.94,32,1.94,32" transform="translate(-138 -200.21)"/><path class="cls-3" d="M286.44,246.18s15.84-9.62,15.84,2.27-.75,67.39.93,79.28S309,416.35,306.56,433s1.12,68.57-.56,70.53-8.9,3.1-8.9-2.56V428.07c0-17-8.42-99.21-9-115.63s-1.68-66.26-1.68-66.26" transform="translate(-138 -200.21)"/><path class="cls-4" d="M290.65,246.18s15.84-9.62,15.84,2.27-.75,67.39.93,79.28,5.78,88.62,3.35,105.31,1.12,68.57-.56,70.53-8.9,3.1-8.9-2.56V428.07c0-17-8.42-99.21-9-115.63s-1.68-66.26-1.68-66.26" transform="translate(-138 -200.21)"/><path class="cls-3" d="M318.22,506.59s0,.33-.06.87c-.16,2.47-.4,9.32,1.74,9.32,3.35,0,7.26-4.24,7.26-24.91s5.39-76.91,3.16-100.14-1.49-76.73-1.49-82,3.72-15,5.21-3.59,10.42,75.28,11.54,82.87,3.9,31.39,6.14,36.4,8.93,5,8.93-4.22.93-93.37.93-103.64.93-47.54.93-52.75-8-9.06-8,0-2.79,72.66-2.79,77.58S346,328.59,345.58,321s-6.7-45.49-10.61-49.45-18.09-4.53-18.09,2.26,3.76,106.38,3,122.73Z" transform="translate(-138 -200.21)"/><path class="cls-4" d="M322.43,506.59s0,.33-.06.87c-.16,2.47-.4,9.32,1.74,9.32,3.35,0,7.26-4.24,7.26-24.91s5.39-76.91,3.16-100.14S333,315,333,309.72s3.72-15,5.21-3.59,10.42,75.28,11.54,82.87,3.9,31.39,6.14,36.4,8.93,5,8.93-4.22.93-93.37.93-103.64.93-47.54.93-52.75-8-9.06-8,0-2.79,72.66-2.79,77.58-5.77-13.78-6.14-21.33-6.7-45.49-10.61-49.45-18.09-4.53-18.09,2.26,3.76,106.38,3,122.73Z" transform="translate(-138 -200.21)"/><path class="cls-3" d="M396.33,437.34l-16.2,4c-.22-3.09,11.36-79.32,11.36-79.32s.93,17.8.93,22.08,3.91,53.2,3.91,53.2m9.86-23.92c0-3.64-5.77-75.72-7.26-83.64s-3.16-15.3-3.16-15.3-7.38-2.83-7.38,4-6.58,45.94-8.26,59.36-10.46,61.25-10.46,70.07.41,21.48.41,21.48,6.7,3.43,6.7,0,1.68-15.56,3.35-16.13,15.08-4.31,15.08-.89.93,30.94.93,34.23,9.12,2.23,9.12,0,.93-69.51.93-73.15" transform="translate(-138 -200.21)"/><path class="cls-4" d="M400.54,437.34l-16.2,4c-.22-3.09,11.36-79.32,11.36-79.32s.93,17.8.93,22.08,3.91,53.2,3.91,53.2m9.86-23.92c0-3.64-5.77-75.72-7.26-83.64s-3.16-15.3-3.16-15.3-7.38-2.83-7.38,4-6.58,45.94-8.26,59.36-10.46,61.25-10.46,70.07.41,21.48.41,21.48,6.7,3.43,6.7,0,1.68-15.56,3.35-16.13,15.08-4.31,15.08-.89.93,30.94.93,34.23,9.12,2.23,9.12,0,.93-69.51.93-73.15" transform="translate(-138 -200.21)"/></g></svg>