<svg id="Layer_1" data-name="Layer 1" xmlns="http://www.w3.org/2000/svg" xmlns:xlink="http://www.w3.org/1999/xlink" viewBox="0 0 144.21 170.15"><defs><style>.cls-1,.cls-4,.cls-6,.cls-8,.cls-9{fill:none;}.cls-2{clip-path:url(#clip-path);}.cls-3{fill:#fff5e4;}.cls-4,.cls-6,.cls-9{stroke:#231f20;}.cls-4,.cls-8{stroke-width:0.5px;}.cls-5{fill:#ffe8d3;}.cls-6{stroke-width:0.75px;}.cls-7{fill:#f68b69;}.cls-8{stroke:#000;}.cls-9{stroke-width:0.25px;}.cls-10{fill:#fff;}</style><clipPath id="clip-path" transform="translate(-233.79 -310.82)"><rect class="cls-1" x="233.79" y="310.82" width="144.21" height="170.15"/></clipPath></defs><g class="cls-2"><path class="cls-3" d="M375.92,313.44c-11.58,14.35-28.08,21.9-39.78,27.37s-22.64,4-35.1,5.28-23.27-2.62-33.41-6.93-26.47-24.72-26.47-24.72L234,311s21.63,25.81,28.43,30.17,23.81,11.61,41.93,10.88,32.83-3,44.78-10.88a166.66,166.66,0,0,0,22.25-18l6.44-7.27" transform="translate(-233.79 -310.82)"/><path class="cls-4" d="M375.92,313.44c-11.58,14.35-28.08,21.9-39.78,27.37s-22.64,4-35.1,5.28-23.27-2.62-33.41-6.93-26.47-24.72-26.47-24.72L234,311s21.63,25.81,28.43,30.17,23.81,11.61,41.93,10.88,32.83-3,44.78-10.88a166.66,166.66,0,0,0,22.25-18l6.44-7.27" transform="translate(-233.79 -310.82)"/><path class="cls-5" d="M305,352.66c.23.84.65,2.14,1,9.29s-3.44,30.8-2.75,36.06,3,40.38,3,47.19a112.69,112.69,0,0,1-1.57,18.35c-1.06,7.37-1.44,15.11-2.07,15.41a3.15,3.15,0,0,1-3.93-2.83c-.38-3-2.72-40.65-5.44-46.42-1-2.1-4.86-1.22-4.86.59s-3.64,38.51-3.77,40.66-.68,8.39-1.37,9-3.69,1-4.25,0-2.78-19-2.78-22.67,0-21.79.15-26.45c.09-3.26-.87-21.93-.37-25.57.27-2-.38-10.47-1.5-8.87s-4.31,14.93-5.63,16.53-12.36,8.71-14.22,9.38-4.72-1.55-3.83-3,10.32-8.41,11.4-9.46,3.47-12.17,4.4-14.8a63.59,63.59,0,0,1,4.13-7.86s2.25-10.49,3.75-13.44,5.25-6.05,8.25-6.05,8.81,2.42,10.69,6.05,2.43,7.22,3.18,7.41,2.25-9.12,2.25-12.37.32-14.73.32-16.41" transform="translate(-233.79 -310.82)"/><path class="cls-6" d="M305,352.66c.23.84.65,2.14,1,9.29s-3.44,30.8-2.75,36.06,3,40.38,3,47.19a112.69,112.69,0,0,1-1.57,18.35c-1.06,7.37-1.44,15.11-2.07,15.41a3.15,3.15,0,0,1-3.93-2.83c-.38-3-2.72-40.65-5.44-46.42-1-2.1-4.86-1.22-4.86.59s-3.64,38.51-3.77,40.66-.68,8.39-1.37,9-3.69,1-4.25,0-2.78-19-2.78-22.67,0-21.79.15-26.45c.09-3.26-.87-21.93-.37-25.57.27-2-.38-10.47-1.5-8.87s-4.31,14.93-5.63,16.53-12.36,8.71-14.22,9.38-4.72-1.55-3.83-3,10.32-8.41,11.4-9.46,3.47-12.17,4.4-14.8a63.59,63.59,0,0,1,4.13-7.86s2.25-10.49,3.75-13.44,5.25-6.05,8.25-6.05,8.81,2.42,10.69,6.05,2.43,7.22,3.18,7.41,2.25-9.12,2.25-12.37.32-14.73.32-16.41" transform="translate(-233.79 -310.82)"/><path class="cls-3" d="M256.35,425.74s-2.28,1.23-2.49,1.88,2.64.29,4.37-.58,3-2.29,2.19-2.34a22.75,22.75,0,0,0-4.07,1" transform="translate(-233.79 -310.82)"/><path class="cls-4" d="M289.27,417.41s-.55.29,0,1.14,0-1.74,0-1.74" transform="translate(-233.79 -310.82)"/><path class="cls-3" d="M257.87,425.81s-2.23-5.15-2.15-5.78,1.71-2.26,1.71-4.28a26,26,0,0,0-1.45-4.91,17.71,17.71,0,0,0-3.84.92,15.88,15.88,0,0,0-3.82,2.41s1.75,4.05,3.29,4.95c1.14.66,2.43.71,2.85,1.86s2.34,5.56,2.34,5.56" transform="translate(-233.79 -310.82)"/><path class="cls-7" d="M256.48,414.18a6.39,6.39,0,0,0-3.24.11c-2,.51-3.59,1.09-3.59,1.09l.86,1.33s1.84,3.32,4.21,2.39c1.27-.5,2.48-2.71,2-3.93Z" transform="translate(-233.79 -310.82)"/><path class="cls-4" d="M249.08,414.22a12.71,12.71,0,0,0,6.68-2.78" transform="translate(-233.79 -310.82)"/><path class="cls-3" d="M280.24,385.4s-3.78-2.54-4.53-5-.54-5.71,2.74-8.88,8.7-1.64,11.41,0,3.78,8.21.16,11.9" transform="translate(-233.79 -310.82)"/><path class="cls-8" d="M280.24,385.4s-3.78-2.54-4.53-5-.54-5.71,2.74-8.88,8.7-1.64,11.41,0,3.78,8.21.16,11.9" transform="translate(-233.79 -310.82)"/><path class="cls-5" d="M275,380.17s5.41-1.17,5.84-2.55,1.34-3.68-1.26-3.89-3.52.3-3.52.3-1.67,1.83-1.06,6.14" transform="translate(-233.79 -310.82)"/><path class="cls-4" d="M277.44,376.66s1.94-1.05,3.21-.76" transform="translate(-233.79 -310.82)"/><path class="cls-5" d="M292.7,375c-.52-3.33-2.63-3.42-2.63-3.42s-3.62,1.09-4.38,2.17-2,3.48,2.42,4l4.38.51s.73.1.21-3.24" transform="translate(-233.79 -310.82)"/><path class="cls-4" d="M286.19,375.11a3.52,3.52,0,0,1,3,1" transform="translate(-233.79 -310.82)"/><path class="cls-4" d="M283.61,383.33s2.43.42,3.4-.85" transform="translate(-233.79 -310.82)"/><path class="cls-9" d="M282.16,380.56s.42.32.57,0-.61-.39-1.07,0" transform="translate(-233.79 -310.82)"/><path class="cls-9" d="M285,380.35s.15.29-.22.24.08-.42.94-.1" transform="translate(-233.79 -310.82)"/><path class="cls-3" d="M297.21,342.89a4.52,4.52,0,0,1,4.12-1.66c2.68.34,3.7,1.46,2.86,3.1a3.93,3.93,0,0,1-4.3,2.14c-1.79-.34-2.68-3.58-2.68-3.58" transform="translate(-233.79 -310.82)"/><path class="cls-6" d="M297.21,342.89a4.52,4.52,0,0,1,4.12-1.66c2.68.34,3.7,1.46,2.86,3.1a3.93,3.93,0,0,1-4.3,2.14C298.1,346.13,297.21,342.89,297.21,342.89Z" transform="translate(-233.79 -310.82)"/><path class="cls-10" d="M299,345.52s-.14,3.19.17,3.73a9,9,0,0,0,.62-2.68s0-1.39-.79-1.05" transform="translate(-233.79 -310.82)"/><path class="cls-9" d="M299,345.52s-.14,3.19.17,3.73a9,9,0,0,0,.62-2.68S299.78,345.18,299,345.52Z" transform="translate(-233.79 -310.82)"/><path class="cls-10" d="M302.08,346.59a2.08,2.08,0,0,1,.25-1.06c.25-.29.7,0,.7,0s-.1,4.06-.33,3.78a17.3,17.3,0,0,1-.62-2.76" transform="translate(-233.79 -310.82)"/><path class="cls-9" d="M302.08,346.59a2.08,2.08,0,0,1,.25-1.06c.25-.29.7,0,.7,0s-.1,4.06-.33,3.78A17.3,17.3,0,0,1,302.08,346.59Z" transform="translate(-233.79 -310.82)"/><path class="cls-10" d="M300.56,346.94a13.15,13.15,0,0,0,.41,2.76,10.51,10.51,0,0,0,.4-2.95c0-.65-.79-.45-.81.19" transform="translate(-233.79 -310.82)"/><path class="cls-9" d="M300.56,346.94a13.15,13.15,0,0,0,.41,2.76,10.51,10.51,0,0,0,.4-2.95C301.37,346.1,300.58,346.3,300.56,346.94Z" transform="translate(-233.79 -310.82)"/></g></svg>